<svg xmlns="http://www.w3.org/2000/svg" xmlns:xlink="http://www.w3.org/1999/xlink" width="212" height="200" viewBox="0 0 212 200">
    <defs>
        <path id="a" d="M0 0h200v200H0z"/>
        <path id="c" d="M.725.37H30.3v29.576H.725z"/>
    </defs>
    <g fill="none" fill-rule="evenodd">
        <g>
            <mask id="b" fill="#fff">
                <use xlink:href="#a"/>
            </mask>
            <path fill="#E7EBEF" d="M200 100c0 55.229-44.77 100-100 100C44.771 200 0 155.23 0 100 0 44.772 44.771 0 100 0c55.23 0 100 44.772 100 100" mask="url(#b)"/>
        </g>
        <path fill="#FFF" d="M161.3 70.812v74.253c0 7.666-6.215 13.88-13.883 13.88H53.181c-7.666 0-13.88-6.214-13.88-13.88V70.812"/>
        <path fill="#C8D1D9" d="M153.602 87.883H46.998a7.697 7.697 0 0 1-7.698-7.697V64.212a7.699 7.699 0 0 1 7.698-7.698h106.604a7.697 7.697 0 0 1 7.697 7.699v15.974a7.696 7.696 0 0 1-7.697 7.697"/>
        <path fill="#FFCE82" d="M153.602 79.917H46.998A7.698 7.698 0 0 1 39.3 72.22V56.245a7.699 7.699 0 0 1 7.698-7.698h106.604a7.697 7.697 0 0 1 7.697 7.698V72.22a7.696 7.696 0 0 1-7.697 7.698"/>
        <path fill="#617A91" d="M46.244 72.22V56.245a7.699 7.699 0 0 1 7.698-7.699h-6.945a7.698 7.698 0 0 0-7.697 7.699v15.973a7.697 7.697 0 0 0 7.697 7.699h6.945a7.698 7.698 0 0 1-7.698-7.699"/>
        <path fill="#C8D1D9" d="M68.3 49.203v11.892a6.387 6.387 0 0 1-1.754 4.426c-1.083 1.132-2.581 1.83-4.233 1.83-3.309 0-5.989-2.798-5.989-6.256V49.203c0-3.455 2.68-6.257 5.989-6.257 3.305 0 5.987 2.802 5.987 6.257"/>
        <path fill="#95A4B6" d="M68.3 49.203v4.183a6.385 6.385 0 0 1-1.754 4.423c-1.083 1.132-2.581 1.834-4.233 1.834-3.309 0-5.989-2.802-5.989-6.257v-4.183c0-3.455 2.68-6.257 5.989-6.257 3.305 0 5.987 2.802 5.987 6.257"/>
        <path fill="#C8D1D9" d="M145.277 49.203v11.892a6.388 6.388 0 0 1-1.755 4.426c-1.083 1.132-2.582 1.83-4.233 1.83-3.31 0-5.99-2.798-5.99-6.256V49.203c0-3.455 2.68-6.257 5.99-6.257 3.306 0 5.988 2.802 5.988 6.257"/>
        <path fill="#95A4B6" d="M145.277 49.203v4.183a6.386 6.386 0 0 1-1.755 4.423c-1.083 1.132-2.582 1.834-4.233 1.834-3.31 0-5.99-2.802-5.99-6.257v-4.183c0-3.455 2.68-6.257 5.99-6.257 3.306 0 5.988 2.802 5.988 6.257"/>
        <path fill="#FFCE82" d="M108.63 147.569c-.389 0-.78-.091-1.148-.283a15.743 15.743 0 0 0-14.542 0 2.48 2.48 0 0 1-2.3-4.391 20.703 20.703 0 0 1 19.14 0 2.479 2.479 0 0 1-1.15 4.674"/>
        <path fill="#617A91" d="M100.52 130.346c-10.217 0-19.823 3.979-27.047 11.204a2.475 2.475 0 0 0 0 3.504 2.476 2.476 0 0 0 3.505 0c6.288-6.288 14.649-9.752 23.543-9.752s17.255 3.464 23.543 9.752a2.475 2.475 0 0 0 3.505 0 2.477 2.477 0 0 0 0-3.504c-7.226-7.225-16.831-11.204-27.05-11.204M74.71 85.974a2.477 2.477 0 1 0-4.956 0c0 7.274-5.918 13.192-13.192 13.192a2.479 2.479 0 1 0 0 4.957c10.007 0 18.148-8.142 18.148-18.149M143.859 99.166c-7.274 0-13.192-5.917-13.192-13.192a2.477 2.477 0 1 0-4.956 0c0 10.007 8.14 18.15 18.148 18.15a2.48 2.48 0 0 0 0-4.958M79.782 111.276c0-5.056-4.113-9.17-9.169-9.17s-9.169 4.114-9.169 9.17 4.113 9.168 9.17 9.168c5.055 0 9.168-4.112 9.168-9.168M129.808 102.107c-5.056 0-9.17 4.113-9.17 9.169s4.114 9.168 9.17 9.168 9.169-4.112 9.169-9.168c0-5.056-4.113-9.17-9.17-9.17M186.743 96.59c-.313 0-.628-.119-.867-.358l-8.819-8.79a1.23 1.23 0 0 1 1.735-1.74l8.818 8.79a1.228 1.228 0 0 1-.867 2.098"/>
        <path fill="#617A91" d="M188.571 68.08c0 16.093-13.043 29.137-29.136 29.137-16.09 0-29.135-13.044-29.135-29.136 0-16.091 13.044-29.135 29.135-29.135 16.093 0 29.136 13.044 29.136 29.135"/>
        <path fill="#E7EBEF" d="M177.51 81.034a21.89 21.89 0 0 1-2.35 2.771c-8.67 8.67-22.778 8.67-31.448 0-8.671-8.669-8.671-22.778 0-31.448a22.085 22.085 0 0 1 5.348-3.945c8.395-4.424 19.047-3.109 26.1 3.945 7.797 7.797 8.582 19.994 2.35 28.677"/>
        <path fill="#FFF" d="M177.51 81.034c-8.395 4.424-19.047 3.11-26.1-3.945-7.798-7.799-8.582-19.995-2.35-28.677 8.395-4.424 19.047-3.109 26.1 3.945 7.797 7.797 8.582 19.994 2.35 28.677"/>
        <g transform="translate(181 90)">
            <mask id="d" fill="#fff">
                <use xlink:href="#c"/>
            </mask>
            <path fill="#FFCE82" d="M28.038 27.684a7.722 7.722 0 0 1-10.92 0l-16.1-16.1a1.005 1.005 0 0 1 0-1.418L10.52.664a1.005 1.005 0 0 1 1.42 0l16.098 16.099a7.724 7.724 0 0 1 0 10.921" mask="url(#d)"/>
        </g>
        <path fill="#C8D1D9" d="M210.523 108.842a7.72 7.72 0 0 1-11.75.979l-13.204-13.204 5.952-5.952a1.003 1.003 0 0 1 1.419 0l16.099 16.098a7.71 7.71 0 0 1 1.484 2.079"/>
    </g>
</svg>
