<?xml version="1.0" encoding="UTF-8"?>
<svg width="280px" height="162px" viewBox="0 0 280 162" version="1.1" xmlns="http://www.w3.org/2000/svg" xmlns:xlink="http://www.w3.org/1999/xlink">
    <!-- Generator: Sketch 53.2 (72643) - https://sketchapp.com -->
    <title>Group</title>
    <desc>Created with Sketch.</desc>
    <defs>
        <polygon id="path-1" points="0.000621336294 0.115829204 162.21019 0.115829204 162.21019 161.99958 0.000621336294 161.99958"></polygon>
    </defs>
    <g id="Page-1" stroke="none" stroke-width="1" fill="none" fill-rule="evenodd">
        <g id="1.-Welcome--02" transform="translate(-601.000000, -367.000000)">
            <g id="Group-2" transform="translate(601.000000, 367.000000)">
                <g id="Group" transform="translate(140.000000, 81.000000) rotate(-180.000000) translate(-140.000000, -81.000000) ">
                    <g id="Group-3">
                        <mask id="mask-2" fill="white">
                            <use xlink:href="#path-1"></use>
                        </mask>
                        <g id="Clip-2"></g>
                        <path d="M88.4244906,158.194962 C82.6915717,163.531734 73.6942213,163.214823 68.3518455,157.491421 L3.7912402,88.3183319 C-1.52566536,82.6202829 -1.21153281,73.7129879 4.49591591,68.4015696 L73.7854895,3.92086675 C79.5184085,-1.4159044 88.5157588,-1.10110673 93.8581346,4.62440784 L158.41874,73.7974973 C163.737768,79.4955463 163.421513,88.4028413 157.714064,93.7142596 L88.4244906,158.194962 Z" id="Fill-1" fill="#FF7172" mask="url(#mask-2)"></path>
                    </g>
                    <path d="M187.909758,92.3758211 L135.963947,140.824021 C130.950348,145.368289 123.191257,144.99154 118.646555,139.979511 L70.2461208,88.0051119 C65.718393,83.0142488 66.098179,75.3120644 71.0884395,70.7868459 L123.036372,22.336529 C128.047849,17.7922614 135.806941,18.1711267 140.353764,23.1810389 L188.754198,75.1554385 C193.279804,80.1463016 192.904262,87.8506025 187.909758,92.3758211" id="Fill-4" fill="#D35D8A"></path>
                    <path d="M217.563246,90.7399926 L182.942222,122.887574 C178.649062,126.61425 172.126598,126.176066 168.378568,121.907979 L136.120479,87.4220083 C132.385175,83.1686683 132.826369,76.7159787 137.100439,73.0019429 L171.723584,40.854361 C176.016744,37.1276852 182.539208,37.5658698 186.287238,41.8339564 L218.547449,76.3220339 C222.280631,80.5732672 221.841558,87.0259568 217.563246,90.7399926" id="Fill-6" fill="#A84AA2"></path>
                    <path d="M247.761494,88.6528579 L230.265834,104.908614 C226.651365,107.872147 221.306839,107.367218 218.324795,103.777316 L202.021095,86.339129 C199.045483,82.7598799 199.553566,77.4634434 203.155173,74.5084324 L220.650832,58.2526759 C224.263157,55.2891429 229.607684,55.7940727 232.594016,59.3839743 L248.895571,76.8221613 C251.871184,80.4014104 251.3631,85.6978469 247.761494,88.6528579" id="Fill-8" fill="#7D36BA"></path>
                    <path d="M277.451996,86.9683908 L277.451996,86.9683908 C274.62144,89.0942408 270.60062,88.533923 268.464034,85.7155454 C266.327448,82.9034635 266.888933,78.8951975 269.71318,76.7735447 C272.543736,74.6476947 276.564555,75.2080125 278.705347,78.0263901 C280.837727,80.838472 280.278346,84.846738 277.451996,86.9683908" id="Fill-10" fill="#5122D2"></path>
                </g>
            </g>
        </g>
    </g>
</svg>