<svg xmlns="http://www.w3.org/2000/svg" xmlns:xlink="http://www.w3.org/1999/xlink" width="40" height="60" viewBox="0 0 86 112">
    <defs>
        <rect id="a" width="70" height="96" rx="4"/>
    </defs>
    <g fill="none" fill-rule="evenodd">
        <path fill="#F2F2F2" d="M6 0h74a6 6 0 0 1 6 6v76.728a6 6 0 0 1-2.751 5.044L57.942 104.07a2 2 0 0 0-.917 1.681v2.58a3.492 3.492 0 0 1-3.665 3.487l-6.841-.34a55.764 55.764 0 0 1-18.502-4.148A43.777 43.777 0 0 1 12.589 96.6l-3.027-3.27A35.93 35.93 0 0 1 0 68.924V6a6 6 0 0 1 6-6z"/>
        <g transform="translate(8 8)">
            <mask id="b" fill="#fff">
                <use xlink:href="#a"/>
            </mask>
            <g mask="url(#b)">
                <g transform="translate(-.785 -.05)">
                    <path fill="#D5D5D6" fill-rule="nonzero" d="M.128 0h71.128v49.688H.128z"/>
                    <circle cx="35.63" cy="48.166" r="23" fill="#F2F2F2" fill-rule="nonzero"/>
                    <path d="M19.743 49.188a18.858 18.858 0 0 0 .004-.054 16.05 16.05 0 0 0 3.46 8.712c3.013 3.7 7.545 5.97 13.332 5.939h.068a16.633 16.633 0 0 0 8.774-3.397c3.75-2.94 6.055-7.402 6.048-13.073a16.057 16.057 0 0 0-3.463-8.701c-2.996-3.696-7.539-5.967-13.322-5.95-3.22.25-6.297 1.43-8.853 3.397-3.757 2.962-6.062 7.43-6.048 13.127z"/>
                    <path fill="#DCDCDD" fill-rule="nonzero" d="M23.968 25.191a30.897 30.897 0 0 1 3.753-.26 25.815 25.815 0 0 1 12.438 3.144c7.485 3.991 11.51 12.237 11.266 19.261 0 5.672-2.298 10.136-6.047 13.074a16.633 16.633 0 0 1-8.771 3.375c7.062.192 15.408-3.742 19.454-11.08a24.754 24.754 0 0 0 3.217-12.233c-.093-13.419-9.007-24.388-24.505-26.834-.022 0-.397-.071-1.05-.157-.312-.039-.626-.074-.945-.11a33.47 33.47 0 0 0-1.208-.107l-.346-.01a50.216 50.216 0 0 0-1.22-.068c-.357 0-.678-.025-1.025-.032H26.792A41.496 41.496 0 0 0 .056 24.105l.072 27.95C1.95 37.41 11.676 26.785 23.968 25.19z"/>
                    <path fill="#D5D5D6" fill-rule="nonzero" d="M36.539 63.785c-5.787.018-10.337-2.254-13.332-5.95a16.05 16.05 0 0 1-3.46-8.711c-.043 1.349.06 2.699.304 4.026v.09c.035.187.072.374.11.562l.047.203a19.7 19.7 0 0 0 .182.74c.029.1.06.228.093.356.032.128.075.253.11.381l.08.257c.047.15.096.3.146.452l.06.181c.06.171.122.342.187.513l.043.114c.071.19.146.38.225.57l.021.046a21.712 21.712 0 0 0 8.76 10.271 27.853 27.853 0 0 1 19.695 2.938c10.637-2.375 18.826-10.607 20.913-23.399a39.51 39.51 0 0 0 .532-6.455v-1.424C70.748 21.126 56.32 2.003 32.19.796a3.941 3.941 0 0 0-2.95 1.022 3.91 3.91 0 0 0-1.271 2.841l.039 8.48h.965c.357 0 .715.019 1.026.033.41 0 .815.039 1.219.067l.336.025a35.893 35.893 0 0 1 2.152.217c16.173 2.09 25.505 13.259 25.602 26.995a24.754 24.754 0 0 1-3.217 12.233C52.03 60.07 43.65 64.027 36.506 63.792h.08-.069l.022-.007z"/>
                    <path fill="#EBEBEB" fill-rule="nonzero" d="M21.373 57.611l-.021-.046c-.08-.19-.154-.38-.226-.57l-.043-.114c-.064-.17-.126-.341-.185-.512l-.061-.182c-.05-.15-.1-.299-.147-.452l-.078-.256a15.288 15.288 0 0 1-.204-.737c-.032-.128-.054-.2-.079-.3-.025-.099-.071-.295-.103-.44l-.047-.204c-.04-.188-.078-.374-.11-.562v-.09a18.858 18.858 0 0 1-.326-3.958c0-5.697 2.291-10.169 6.051-13.116a16.619 16.619 0 0 1 8.854-3.397c-7.077-.22-15.462 3.717-19.523 11.08a24.754 24.754 0 0 0-3.217 12.233c.047 6.736 2.32 12.852 6.527 17.584a27.676 27.676 0 0 1 11.67-5.696 21.694 21.694 0 0 1-8.732-10.265zM71.255 40.97c-.053 16.481-9.096 27.105-21.445 29.857a27.855 27.855 0 0 1 9.65 9.107c4.612-1.99 8.2-4.803 11.798-8.299l-.003-30.843v.178z"/>
                    <path fill="#E3E3E4" fill-rule="nonzero" d="M.01 56.664C.367 75.09 14.664 94.314 38.794 95.7a3.941 3.941 0 0 0 2.94-1.009 3.91 3.91 0 0 0 1.285-2.822v-8.502a42.783 42.783 0 0 1-6.738-.551c-15.476-2.557-24.305-13.59-24.305-27.009a24.755 24.755 0 0 1 3.289-12.212c4.114-7.334 12.527-11.207 19.6-10.937 5.788.025 10.32 2.329 13.286 6.053a16.056 16.056 0 0 1 3.4 8.737c.293-7.025-3.668-15.31-11.124-19.343a25.814 25.814 0 0 0-12.413-3.237C12.187 24.864-.398 36.584.01 56.664z"/>
                </g>
            </g>
        </g>
        <path fill="#FFF" fill-rule="nonzero" d="M18 22.702v-7.59h5.049v1.252h-3.685v1.918h3.432v1.251h-3.432v1.88h3.685v1.29H18zm5.663 0l1.837-2.707-1.837-2.659h1.595l1.112 1.768 1.112-1.768h1.606l-1.848 2.66 1.848 2.706h-1.606l-1.112-1.805-1.112 1.805h-1.595zm9.482.108c-2.508 0-3.663-1.837-3.663-3.905 0-2.068 1.155-3.905 3.663-3.905 2.509 0 3.663 1.837 3.663 3.905 0 2.068-1.154 3.905-3.663 3.905zm0-1.209c1.628 0 2.224-1.262 2.224-2.696 0-1.429-.596-2.691-2.224-2.691-1.627 0-2.223 1.262-2.223 2.69 0 1.435.596 2.697 2.223 2.697zm7.535 1.101v-7.59h2.631c1.155 0 2.428.527 2.428 2.047 0 .693-.413 1.252-.843 1.483.693.274 1.22 1.1 1.22 1.858 0 1.413-1.188 2.202-2.477 2.202h-2.96zm1.364-4.533h1.396c.532 0 1.048-.188 1.048-.935 0-.59-.505-.891-1.155-.891h-1.29v1.826zm0 3.233h1.617c.703 0 1.111-.338 1.111-1.052 0-.543-.45-1.005-1.165-1.005h-1.563v2.057zm7.478 1.408c-1.66 0-2.75-1.284-2.75-2.804 0-1.515 1.09-2.782 2.75-2.782s2.75 1.267 2.75 2.782c0 1.52-1.09 2.804-2.75 2.804zm0-1.128c.994 0 1.386-.795 1.386-1.676 0-.881-.392-1.65-1.386-1.65-.988 0-1.385.769-1.385 1.65 0 .88.397 1.676 1.385 1.676zm5.696-4.458c1.46 0 2.32.913 2.32 2.223v3.255h-1.08l-.08-.714c-.35.553-1.063.822-1.676.822-1.1 0-1.95-.634-1.95-1.757 0-1.165.935-1.552 2.138-1.552h1.456c-.027-.795-.263-1.133-1.117-1.133-.618 0-1.032.365-1.263.757l-1.004-.725c.516-.704 1.198-1.176 2.256-1.176zm-.253 4.48c.806 0 1.306-.581 1.386-1.215v-.043h-1.386c-.596 0-.87.312-.87.65 0 .355.285.607.87.607zm3.87.998v-5.366h1.278v.903a1.527 1.527 0 0 1 1.44-1.015c.354 0 .725.123.982.386l-.596 1.075a1.047 1.047 0 0 0-.585-.183c-.613 0-1.252.57-1.252 1.934v2.266h-1.267zm5.92.108c-1.509 0-2.325-1.295-2.325-2.793 0-1.483.816-2.793 2.304-2.793.559 0 1.155.188 1.526.65v-2.761h1.332v7.59h-1.22l-.059-.608c-.37.51-.967.715-1.557.715zm.318-1.187c.902 0 1.3-.693 1.3-1.606 0-.903-.398-1.606-1.3-1.606-.903 0-1.311.714-1.311 1.606 0 .902.408 1.606 1.31 1.606zM24.6 34.703l3.04-7.59h1.021l3.024 7.59h-1.472l-.607-1.65h-2.905l-.613 1.65H24.6zm2.53-2.815h2.047l-1.02-2.772-1.027 2.772zm7.076 2.922c-1.51 0-2.326-1.295-2.326-2.793 0-1.483.817-2.793 2.305-2.793.558 0 1.154.188 1.525.65v-2.761h1.332v7.59h-1.22l-.058-.608c-.371.51-.967.715-1.558.715zm.317-1.187c.902 0 1.3-.693 1.3-1.606 0-.903-.398-1.606-1.3-1.606s-1.31.714-1.31 1.606c0 .902.408 1.606 1.31 1.606zm5.352 1.08l-2.186-5.367h1.428l1.3 3.674 1.305-3.674h1.424l-2.192 5.366h-1.08zm3.869-6.382v-1.208h1.375v1.208h-1.375zm.032 6.381v-5.366h1.31v5.366h-1.31zm4.39.108c-1.128 0-1.987-.677-2.25-1.504l1.042-.462c.145.386.43.88 1.144.88.607 0 .87-.354.87-.639 0-.902-2.696-.295-2.696-2.191 0-1.133.956-1.67 1.992-1.67.924 0 1.628.44 2.036 1.165l-1.015.553c-.183-.333-.484-.682-1.064-.682-.43 0-.693.21-.693.462 0 .811 2.729.328 2.729 2.299 0 1.24-1.08 1.789-2.095 1.789zm5.39 0c-1.66 0-2.75-1.284-2.75-2.804 0-1.515 1.09-2.782 2.75-2.782s2.75 1.267 2.75 2.782c0 1.52-1.09 2.804-2.75 2.804zm0-1.128c.993 0 1.385-.795 1.385-1.676 0-.881-.392-1.65-1.385-1.65-.989 0-1.386.769-1.386 1.65 0 .88.397 1.676 1.386 1.676zm3.713 1.02v-5.366h1.278v.903a1.527 1.527 0 0 1 1.44-1.015c.354 0 .725.123.983.386l-.597 1.075a1.047 1.047 0 0 0-.585-.183c-.612 0-1.251.57-1.251 1.934v2.266h-1.268z"/>
    </g>
</svg>
