<svg xmlns="http://www.w3.org/2000/svg" xmlns:xlink="http://www.w3.org/1999/xlink" width="40" height="60" viewBox="0 0 86 112">
    <defs>
        <rect id="a" width="70" height="96" rx="4"/>
    </defs>
    <g fill="none" fill-rule="evenodd">
        <path fill="#F2F2F2" d="M6 0h74a6 6 0 0 1 6 6v76.728a6 6 0 0 1-2.751 5.044L57.942 104.07a2 2 0 0 0-.917 1.681v2.58a3.492 3.492 0 0 1-3.665 3.487l-6.841-.34a55.764 55.764 0 0 1-18.502-4.148A43.777 43.777 0 0 1 12.589 96.6l-3.027-3.27A35.93 35.93 0 0 1 0 68.924V6a6 6 0 0 1 6-6z"/>
        <g transform="translate(8 8)">
            <mask id="b" fill="#fff">
                <use xlink:href="#a"/>
            </mask>
            <g mask="url(#b)">
                <g transform="translate(-.785 -.05)">
                    <path fill="#D5D5D6" fill-rule="nonzero" d="M.128 0h71.128v49.688H.128z"/>
                    <ellipse cx="35.63" cy="48.166" fill="#F2F2F2" fill-rule="nonzero" rx="25.506" ry="25"/>
                    <path d="M19.743 49.188a18.858 18.858 0 0 0 .004-.054 16.05 16.05 0 0 0 3.46 8.712c3.013 3.7 7.545 5.97 13.332 5.939h.068a16.633 16.633 0 0 0 8.774-3.397c3.75-2.94 6.055-7.402 6.048-13.073a16.057 16.057 0 0 0-3.463-8.701c-2.996-3.696-7.539-5.967-13.322-5.95-3.22.25-6.297 1.43-8.853 3.397-3.757 2.962-6.062 7.43-6.048 13.127z"/>
                    <path fill="#DCDCDD" fill-rule="nonzero" d="M23.968 25.191a30.897 30.897 0 0 1 3.753-.26 25.815 25.815 0 0 1 12.438 3.144c7.485 3.991 11.51 12.237 11.266 19.261 0 5.672-2.298 10.136-6.047 13.074a16.633 16.633 0 0 1-8.771 3.375c7.062.192 15.408-3.742 19.454-11.08a24.754 24.754 0 0 0 3.217-12.233c-.093-13.419-9.007-24.388-24.505-26.834-.022 0-.397-.071-1.05-.157-.312-.039-.626-.074-.945-.11a33.47 33.47 0 0 0-1.208-.107l-.346-.01a50.216 50.216 0 0 0-1.22-.068c-.357 0-.678-.025-1.025-.032H26.792A41.496 41.496 0 0 0 .056 24.105l.072 27.95C1.95 37.41 11.676 26.785 23.968 25.19z"/>
                    <path fill="#D5D5D6" fill-rule="nonzero" d="M36.539 63.785c-5.787.018-10.337-2.254-13.332-5.95a16.05 16.05 0 0 1-3.46-8.711c-.043 1.349.06 2.699.304 4.026v.09c.035.187.072.374.11.562l.047.203a19.7 19.7 0 0 0 .182.74c.029.1.06.228.093.356.032.128.075.253.11.381l.08.257c.047.15.096.3.146.452l.06.181c.06.171.122.342.187.513l.043.114c.071.19.146.38.225.57l.021.046a21.712 21.712 0 0 0 8.76 10.271 27.853 27.853 0 0 1 19.695 2.938c10.637-2.375 18.826-10.607 20.913-23.399a39.51 39.51 0 0 0 .532-6.455v-1.424C70.748 21.126 56.32 2.003 32.19.796a3.941 3.941 0 0 0-2.95 1.022 3.91 3.91 0 0 0-1.271 2.841l.039 8.48h.965c.357 0 .715.019 1.026.033.41 0 .815.039 1.219.067l.336.025a35.893 35.893 0 0 1 2.152.217c16.173 2.09 25.505 13.259 25.602 26.995a24.754 24.754 0 0 1-3.217 12.233C52.03 60.07 43.65 64.027 36.506 63.792h.08-.069l.022-.007z"/>
                    <path fill="#EBEBEB" fill-rule="nonzero" d="M21.373 57.611l-.021-.046c-.08-.19-.154-.38-.226-.57l-.043-.114c-.064-.17-.126-.341-.185-.512l-.061-.182c-.05-.15-.1-.299-.147-.452l-.078-.256a15.288 15.288 0 0 1-.204-.737c-.032-.128-.054-.2-.079-.3-.025-.099-.071-.295-.103-.44l-.047-.204c-.04-.188-.078-.374-.11-.562v-.09a18.858 18.858 0 0 1-.326-3.958c0-5.697 2.291-10.169 6.051-13.116a16.619 16.619 0 0 1 8.854-3.397c-7.077-.22-15.462 3.717-19.523 11.08a24.754 24.754 0 0 0-3.217 12.233c.047 6.736 2.32 12.852 6.527 17.584a27.676 27.676 0 0 1 11.67-5.696 21.694 21.694 0 0 1-8.732-10.265zM71.255 40.97c-.053 16.481-9.096 27.105-21.445 29.857a27.855 27.855 0 0 1 9.65 9.107c4.612-1.99 8.2-4.803 11.798-8.299l-.003-30.843v.178z"/>
                    <path fill="#E3E3E4" fill-rule="nonzero" d="M.01 56.664C.367 75.09 14.664 94.314 38.794 95.7a3.941 3.941 0 0 0 2.94-1.009 3.91 3.91 0 0 0 1.285-2.822v-8.502a42.783 42.783 0 0 1-6.738-.551c-15.476-2.557-24.305-13.59-24.305-27.009a24.755 24.755 0 0 1 3.289-12.212c4.114-7.334 12.527-11.207 19.6-10.937 5.788.025 10.32 2.329 13.286 6.053a16.056 16.056 0 0 1 3.4 8.737c.293-7.025-3.668-15.31-11.124-19.343a25.814 25.814 0 0 0-12.413-3.237C12.187 24.864-.398 36.584.01 56.664z"/>
                </g>
            </g>
        </g>
        <g fill="#FFF" fill-rule="nonzero">
            <path d="M38.724 24.126h-2.812v1.904h3.3v1.177h-4.765v-7.11h4.756v1.187h-3.291v1.695h2.812v1.147zm3.267-.625l.888-1.577h1.51l-1.505 2.588 1.568 2.695h-1.514l-.942-1.66-.938 1.66H39.54l1.567-2.695-1.5-2.588h1.515l.869 1.577zm9.009.312c0 .7-.124 1.314-.372 1.841a2.795 2.795 0 0 1-1.062 1.221c-.46.286-.988.43-1.584.43-.59 0-1.115-.142-1.577-.425a2.822 2.822 0 0 1-1.074-1.213c-.254-.526-.383-1.13-.386-1.814V23.5c0-.7.126-1.316.378-1.848.253-.532.609-.94 1.07-1.226.46-.285.987-.427 1.58-.427.592 0 1.118.142 1.579.427.46.285.817.694 1.07 1.226.251.532.378 1.146.378 1.843v.317zm-1.485-.322c0-.745-.133-1.312-.4-1.699s-.648-.581-1.143-.581c-.491 0-.87.191-1.138.574-.266.382-.402.943-.405 1.682v.346c0 .726.134 1.29.4 1.69.268.4.652.6 1.153.6.491 0 .87-.192 1.133-.578.263-.386.397-.948.4-1.687v-.347zm-31.53 11.85c0-.276-.098-.488-.294-.636-.195-.149-.546-.305-1.054-.47-.508-.164-.91-.325-1.206-.485-.808-.436-1.211-1.024-1.211-1.763 0-.384.108-.726.324-1.028.217-.3.528-.536.933-.705A3.51 3.51 0 0 1 16.842 30c.508 0 .96.092 1.357.276.397.184.706.443.926.779.22.335.33.716.33 1.142h-1.466c0-.325-.102-.578-.307-.759-.205-.18-.494-.271-.865-.271-.358 0-.636.076-.835.227a.716.716 0 0 0-.297.598c0 .231.116.425.349.581.232.156.575.303 1.028.44.833.25 1.44.561 1.82.932.382.371.572.834.572 1.387 0 .615-.233 1.098-.698 1.448-.466.35-1.092.525-1.88.525a3.63 3.63 0 0 1-1.494-.3c-.45-.2-.792-.475-1.028-.823A2.107 2.107 0 0 1 14 34.97h1.47c0 .784.468 1.176 1.406 1.176.348 0 .62-.07.815-.212a.691.691 0 0 0 .293-.593zm7.123-.727c0 .814-.184 1.466-.554 1.956-.37.49-.868.735-1.496.735-.534 0-.966-.186-1.294-.557v2.49h-1.411v-7.314h1.308l.049.517c.342-.41.788-.615 1.338-.615.65 0 1.157.241 1.518.723.362.482.542 1.146.542 1.992v.073zm-1.41-.102c0-.492-.088-.871-.262-1.138-.174-.267-.427-.4-.76-.4-.442 0-.746.169-.912.507v2.164c.172.348.48.522.923.522.673 0 1.01-.552 1.01-1.655zm5.253-1.265a3.834 3.834 0 0 0-.508-.039c-.533 0-.883.18-1.05.542v3.457h-1.41v-5.283h1.332l.04.63c.283-.485.675-.728 1.176-.728.157 0 .303.021.44.064l-.02 1.357zm2.168 3.96h-1.416v-5.283h1.416v5.283zm-1.499-6.65c0-.212.07-.386.213-.523.141-.137.334-.205.578-.205.241 0 .433.068.576.205a.69.69 0 0 1 .215.523c0 .214-.072.39-.217.527-.145.137-.336.205-.574.205-.237 0-.429-.068-.574-.205a.693.693 0 0 1-.217-.527zm3.96 1.367l.044.61c.378-.472.884-.708 1.519-.708.56 0 .976.165 1.25.493.273.33.413.82.42 1.475v3.413H35.4v-3.379c0-.3-.065-.517-.195-.652s-.347-.202-.65-.202a.97.97 0 0 0-.893.507v3.726h-1.411v-5.283h1.328zm5.991-1.299v1.299h.904v1.035h-.904v2.637c0 .195.038.335.113.42.074.084.218.127.43.127.156 0 .294-.012.414-.035v1.07a2.905 2.905 0 0 1-.854.127c-.99 0-1.494-.5-1.514-1.5V32.96h-.771v-1.035h.771v-1.299h1.411zm9.854 4.214c-.056.765-.338 1.367-.847 1.807-.51.439-1.181.659-2.015.659-.911 0-1.628-.307-2.15-.92-.523-.614-.784-1.457-.784-2.528v-.434c0-.684.12-1.286.361-1.807.241-.52.585-.92 1.033-1.199.448-.278.968-.417 1.56-.417.82 0 1.481.22 1.982.66.502.439.791 1.055.87 1.85H47.97c-.036-.46-.164-.792-.384-.999-.22-.206-.554-.31-1.003-.31-.488 0-.854.175-1.096.525-.243.35-.367.893-.374 1.628v.538c0 .768.117 1.33.35 1.684.232.355.6.532 1.1.532.453 0 .79-.103 1.014-.31.223-.206.35-.526.383-.96h1.465zm.65-.322c0-.524.1-.992.302-1.402.202-.41.492-.727.872-.952.379-.225.819-.337 1.32-.337.713 0 1.295.218 1.746.654.45.437.702 1.03.754 1.778l.01.361c0 .81-.226 1.46-.679 1.95-.452.49-1.06.736-1.82.736-.763 0-1.37-.244-1.825-.733-.454-.488-.68-1.152-.68-1.992v-.063zm1.41.102c0 .501.095.885.284 1.15.188.265.459.398.81.398.342 0 .609-.131.8-.393.193-.262.289-.681.289-1.257 0-.492-.096-.873-.288-1.143-.192-.27-.462-.405-.81-.405-.346 0-.613.134-.801.403-.19.268-.284.684-.284 1.247zm7.525 2.588a1.567 1.567 0 0 1-.142-.474c-.342.381-.786.572-1.333.572-.517 0-.946-.15-1.286-.45-.34-.299-.51-.677-.51-1.132 0-.56.207-.99.622-1.29.415-.299 1.015-.45 1.8-.454h.649v-.302c0-.244-.063-.44-.188-.586-.126-.147-.323-.22-.594-.22-.237 0-.424.057-.559.171a.58.58 0 0 0-.202.469h-1.412c0-.306.095-.59.284-.85.188-.26.455-.465.8-.613a2.918 2.918 0 0 1 1.163-.222c.65 0 1.167.164 1.55.49.382.328.574.788.574 1.38v2.29c.003.502.073.88.21 1.138v.083H59.01zm-1.167-.981c.208 0 .4-.047.576-.14a.914.914 0 0 0 .39-.373v-.908h-.527c-.706 0-1.082.244-1.128.732l-.005.083c0 .176.062.32.186.435.124.114.293.17.508.17zm5.664-.059c.26 0 .472-.072.635-.215a.753.753 0 0 0 .254-.571h1.323a1.81 1.81 0 0 1-.293.984 1.933 1.933 0 0 1-.789.693 2.468 2.468 0 0 1-1.106.247c-.755 0-1.35-.24-1.787-.72-.436-.48-.654-1.144-.654-1.99v-.093c0-.814.216-1.463.65-1.948.432-.485 1.026-.728 1.781-.728.661 0 1.191.188 1.59.564.399.376.601.877.608 1.502h-1.323c-.007-.274-.092-.496-.254-.667-.163-.17-.378-.256-.645-.256-.329 0-.577.12-.745.359-.167.239-.251.627-.251 1.164v.147c0 .543.083.934.249 1.172.166.237.418.356.757.356zM67.9 32.5c.375-.45.845-.674 1.412-.674 1.145 0 1.726.666 1.743 1.997v3.384h-1.411v-3.345c0-.302-.066-.526-.196-.671-.13-.145-.346-.217-.65-.217-.413 0-.712.16-.898.478v3.755h-1.41v-7.5h1.41V32.5zM26.054 15.266c-1.362 0-2.004-.994-2.004-2.13 0-1.134.636-2.136 1.998-2.136.82 0 1.477.416 1.81 1.19l-.693.275c-.156-.545-.583-.756-1.123-.756-.876 0-1.253.63-1.253 1.397 0 .824.377 1.454 1.265 1.454.533 0 .9-.211 1.122-.768l.689.281c-.328.774-.988 1.193-1.81 1.193zm3.342-.059v-4.14h2.754v.683h-2.01v1.046h1.872v.683H30.14v1.025h2.01v.703h-2.754zm4.504 0v-4.14h1.34c.773 0 1.432.443 1.432 1.22 0 .52-.34.916-.809 1.077l1.152 1.843h-.853l-1.02-1.77h-.498v1.77H33.9zm.75-2.376h.657c.395-.018.63-.223.63-.533 0-.343-.267-.566-.692-.566h-.595v1.1zm4.646 2.376v-3.475h-1.298v-.665h3.337v.665H40.04v3.475h-.744zm3.49 0v-4.14h.745v4.14h-.745zm2.668 0v-4.14h2.936v.683h-2.192v1.046h1.934v.683h-1.934v1.728h-.744zm4.475 0v-4.14h.745v4.14h-.745zm2.668 0v-4.14h2.754v.683h-2.01v1.046h1.872v.683h-1.872v1.025h2.01v.703h-2.754zm4.505 0v-4.14h1.2c1.41 0 2.154.756 2.154 2.101 0 1.289-.767 2.039-2.159 2.039h-1.195zm.744-.683h.378c.914 0 1.488-.354 1.488-1.388 0-.982-.401-1.386-1.42-1.386h-.446v2.774z"/>
        </g>
    </g>
</svg>
