<svg xmlns="http://www.w3.org/2000/svg" xmlns:xlink="http://www.w3.org/1999/xlink" width="40" height="60" viewBox="0 0 86 112">
    <defs>
        <rect id="a" width="70" height="96" rx="4"/>
    </defs>
    <g fill="none" fill-rule="evenodd">
        <path fill="#F2F2F2" d="M6 0h74a6 6 0 0 1 6 6v76.728a6 6 0 0 1-2.751 5.044L57.942 104.07a2 2 0 0 0-.917 1.681v2.58a3.492 3.492 0 0 1-3.665 3.487l-6.841-.34a55.764 55.764 0 0 1-18.502-4.148A43.777 43.777 0 0 1 12.589 96.6l-3.027-3.27A35.93 35.93 0 0 1 0 68.924V6a6 6 0 0 1 6-6z"/>
        <g transform="translate(8 8)">
            <mask id="b" fill="#fff">
                <use xlink:href="#a"/>
            </mask>
            <g mask="url(#b)">
                <g transform="translate(-.785 -.05)">
                    <path fill="#D5D5D6" fill-rule="nonzero" d="M.128 0h71.128v49.688H.128z"/>
                    <ellipse cx="35.63" cy="48.166" fill="#F2F2F2" fill-rule="nonzero" rx="22.747" ry="23"/>
                    <path d="M19.743 49.188a18.858 18.858 0 0 0 .004-.054 16.05 16.05 0 0 0 3.46 8.712c3.013 3.7 7.545 5.97 13.332 5.939h.068a16.633 16.633 0 0 0 8.774-3.397c3.75-2.94 6.055-7.402 6.048-13.073a16.057 16.057 0 0 0-3.463-8.701c-2.996-3.696-7.539-5.967-13.322-5.95-3.22.25-6.297 1.43-8.853 3.397-3.757 2.962-6.062 7.43-6.048 13.127z"/>
                    <path fill="#DCDCDD" fill-rule="nonzero" d="M23.968 25.191a30.897 30.897 0 0 1 3.753-.26 25.815 25.815 0 0 1 12.438 3.144c7.485 3.991 11.51 12.237 11.266 19.261 0 5.672-2.298 10.136-6.047 13.074a16.633 16.633 0 0 1-8.771 3.375c7.062.192 15.408-3.742 19.454-11.08a24.754 24.754 0 0 0 3.217-12.233c-.093-13.419-9.007-24.388-24.505-26.834-.022 0-.397-.071-1.05-.157-.312-.039-.626-.074-.945-.11a33.47 33.47 0 0 0-1.208-.107l-.346-.01a50.216 50.216 0 0 0-1.22-.068c-.357 0-.678-.025-1.025-.032H26.792A41.496 41.496 0 0 0 .056 24.105l.072 27.95C1.95 37.41 11.676 26.785 23.968 25.19z"/>
                    <path fill="#D5D5D6" fill-rule="nonzero" d="M36.539 63.785c-5.787.018-10.337-2.254-13.332-5.95a16.05 16.05 0 0 1-3.46-8.711c-.043 1.349.06 2.699.304 4.026v.09c.035.187.072.374.11.562l.047.203a19.7 19.7 0 0 0 .182.74c.029.1.06.228.093.356.032.128.075.253.11.381l.08.257c.047.15.096.3.146.452l.06.181c.06.171.122.342.187.513l.043.114c.071.19.146.38.225.57l.021.046a21.712 21.712 0 0 0 8.76 10.271 27.853 27.853 0 0 1 19.695 2.938c10.637-2.375 18.826-10.607 20.913-23.399a39.51 39.51 0 0 0 .532-6.455v-1.424C70.748 21.126 56.32 2.003 32.19.796a3.941 3.941 0 0 0-2.95 1.022 3.91 3.91 0 0 0-1.271 2.841l.039 8.48h.965c.357 0 .715.019 1.026.033.41 0 .815.039 1.219.067l.336.025a35.893 35.893 0 0 1 2.152.217c16.173 2.09 25.505 13.259 25.602 26.995a24.754 24.754 0 0 1-3.217 12.233C52.03 60.07 43.65 64.027 36.506 63.792h.08-.069l.022-.007z"/>
                    <path fill="#EBEBEB" fill-rule="nonzero" d="M21.373 57.611l-.021-.046c-.08-.19-.154-.38-.226-.57l-.043-.114c-.064-.17-.126-.341-.185-.512l-.061-.182c-.05-.15-.1-.299-.147-.452l-.078-.256a15.288 15.288 0 0 1-.204-.737c-.032-.128-.054-.2-.079-.3-.025-.099-.071-.295-.103-.44l-.047-.204c-.04-.188-.078-.374-.11-.562v-.09a18.858 18.858 0 0 1-.326-3.958c0-5.697 2.291-10.169 6.051-13.116a16.619 16.619 0 0 1 8.854-3.397c-7.077-.22-15.462 3.717-19.523 11.08a24.754 24.754 0 0 0-3.217 12.233c.047 6.736 2.32 12.852 6.527 17.584a27.676 27.676 0 0 1 11.67-5.696 21.694 21.694 0 0 1-8.732-10.265zM71.255 40.97c-.053 16.481-9.096 27.105-21.445 29.857a27.855 27.855 0 0 1 9.65 9.107c4.612-1.99 8.2-4.803 11.798-8.299l-.003-30.843v.178z"/>
                    <path fill="#E3E3E4" fill-rule="nonzero" d="M.01 56.664C.367 75.09 14.664 94.314 38.794 95.7a3.941 3.941 0 0 0 2.94-1.009 3.91 3.91 0 0 0 1.285-2.822v-8.502a42.783 42.783 0 0 1-6.738-.551c-15.476-2.557-24.305-13.59-24.305-27.009a24.755 24.755 0 0 1 3.289-12.212c4.114-7.334 12.527-11.207 19.6-10.937 5.788.025 10.32 2.329 13.286 6.053a16.056 16.056 0 0 1 3.4 8.737c.293-7.025-3.668-15.31-11.124-19.343a25.814 25.814 0 0 0-12.413-3.237C12.187 24.864-.398 36.584.01 56.664z"/>
                </g>
            </g>
        </g>
        <g fill="#FFF" fill-rule="nonzero">
            <path d="M21.608 28.919h-2.812v1.904h3.3V32h-4.765v-7.11h4.756v1.187h-3.291v1.694h2.812v1.148zm3.267-.625l.889-1.577h1.508l-1.503 2.588L27.336 32h-1.514l-.942-1.66-.938 1.66h-1.518l1.567-2.695-1.499-2.588h1.514l.869 1.577zm9.009.312c0 .7-.124 1.314-.371 1.841a2.795 2.795 0 0 1-1.062 1.221c-.46.286-.99.43-1.585.43-.589 0-1.115-.142-1.577-.425a2.822 2.822 0 0 1-1.074-1.214c-.254-.525-.383-1.13-.386-1.813v-.352c0-.7.126-1.316.379-1.848.252-.532.608-.941 1.069-1.226.46-.285.987-.427 1.58-.427.592 0 1.118.142 1.579.427.46.285.817.694 1.07 1.226.252.532.378 1.146.378 1.843v.317zm-1.485-.322c0-.745-.133-1.312-.4-1.699s-.648-.581-1.143-.581c-.491 0-.87.191-1.137.574-.267.382-.402.943-.406 1.682v.346c0 .726.134 1.29.4 1.69.268.4.652.6 1.153.6.492 0 .87-.192 1.133-.578.264-.386.397-.948.4-1.687v-.347zm10.391-2.207h-2.178V32h-1.465v-5.923H37v-1.186h5.791v1.186zm3.711 1.963a3.834 3.834 0 0 0-.508-.039c-.534 0-.884.18-1.05.542V32h-1.41v-5.283h1.332l.04.63c.283-.485.675-.728 1.176-.728.156 0 .303.021.44.064l-.02 1.357zm3.74 3.96a1.567 1.567 0 0 1-.141-.474c-.342.381-.787.572-1.333.572-.518 0-.947-.15-1.287-.45-.34-.299-.51-.677-.51-1.132 0-.56.207-.99.622-1.29.415-.299 1.015-.45 1.8-.454h.649v-.302c0-.244-.063-.44-.188-.586-.125-.147-.323-.22-.593-.22-.238 0-.424.057-.56.171a.58.58 0 0 0-.202.469h-1.411c0-.306.094-.59.283-.85.189-.26.456-.465.8-.613a2.918 2.918 0 0 1 1.163-.222c.651 0 1.168.164 1.55.49.383.328.574.788.574 1.38v2.29c.003.502.073.88.21 1.138V32h-1.426zm-1.167-.981c.209 0 .4-.047.576-.14a.914.914 0 0 0 .391-.373v-.908h-.527c-.707 0-1.083.244-1.128.732l-.005.083c0 .176.062.32.185.435.124.114.293.17.508.17zM54.03 32h-1.416v-5.283h1.416V32zm-1.499-6.65c0-.212.071-.386.213-.523.141-.137.334-.205.578-.205.241 0 .433.068.576.205a.69.69 0 0 1 .215.523c0 .214-.072.39-.217.527-.145.137-.336.205-.574.205-.237 0-.429-.068-.573-.205a.693.693 0 0 1-.218-.527zm3.96 1.367l.044.61c.378-.472.884-.708 1.519-.708.56 0 .976.165 1.25.493.273.33.413.82.42 1.475V32h-1.411v-3.379c0-.3-.066-.517-.196-.652s-.346-.202-.65-.202a.97.97 0 0 0-.893.507V32h-1.41v-5.283h1.327zm6.734 5.38c-.775 0-1.406-.237-1.892-.712-.487-.475-.73-1.109-.73-1.9v-.136c0-.531.102-1.005.307-1.424.205-.418.496-.74.872-.967.376-.226.805-.339 1.286-.339.723 0 1.292.228 1.707.684.415.455.622 1.102.622 1.938v.576h-3.364c.046.345.183.622.413.83.23.209.52.313.871.313.544 0 .969-.197 1.275-.59l.693.776c-.211.299-.498.533-.86.7a2.82 2.82 0 0 1-1.2.252zm-.162-4.335a.884.884 0 0 0-.68.283c-.175.189-.286.459-.335.81h1.963v-.112c-.007-.312-.091-.554-.254-.725-.163-.17-.394-.256-.694-.256zm6.104.278a3.834 3.834 0 0 0-.508-.039c-.534 0-.884.18-1.05.542V32H66.2v-5.283h1.332l.04.63c.283-.485.675-.728 1.176-.728.156 0 .303.021.44.064l-.02 1.357zM26.434 15.059c-1.363 0-2.004-.994-2.004-2.13 0-1.134.635-2.136 1.998-2.136.82 0 1.476.416 1.81 1.19l-.694.275c-.155-.545-.583-.756-1.122-.756-.876 0-1.254.63-1.254 1.397 0 .824.378 1.454 1.266 1.454.533 0 .899-.211 1.122-.768l.688.281c-.328.774-.987 1.193-1.81 1.193zM29.775 15v-4.14h2.754v.683h-2.01v1.046h1.872v.682H30.52v1.026h2.01V15h-2.754zm4.505 0v-4.14h1.339c.773 0 1.432.443 1.432 1.22 0 .52-.34.916-.808 1.077L37.394 15h-.853l-1.02-1.77h-.497V15h-.744zm.75-2.376h.656c.395-.018.63-.223.63-.533 0-.343-.267-.566-.692-.566h-.594v1.099zM39.675 15v-3.475h-1.298v-.665h3.337v.665h-1.295V15h-.744zm3.49 0v-4.14h.745V15h-.744zm2.669 0v-4.14h2.935v.683h-2.191v1.046h1.933v.682h-1.933V15h-.744zm4.475 0v-4.14h.744V15h-.744zm2.668 0v-4.14h2.753v.683h-2.01v1.046h1.873v.682H53.72v1.026h2.01V15h-2.754zm4.504 0v-4.14h1.201c1.41 0 2.154.756 2.154 2.1 0 1.29-.768 2.04-2.16 2.04h-1.195zm.744-.683h.378c.914 0 1.488-.354 1.488-1.388 0-.982-.4-1.386-1.42-1.386h-.446v2.774z"/>
        </g>
    </g>
</svg>
