<svg xmlns="http://www.w3.org/2000/svg" xmlns:xlink="http://www.w3.org/1999/xlink" width="102" height="128" viewBox="0 0 102 128">
    <defs>
        <path id="b" d="M6 0h74a6 6 0 0 1 6 6v76.728a6 6 0 0 1-2.751 5.044L57.942 104.07a2 2 0 0 0-.917 1.681v2.58a3.492 3.492 0 0 1-3.665 3.487l-6.841-.34a55.764 55.764 0 0 1-18.502-4.148A43.777 43.777 0 0 1 12.589 96.6l-3.027-3.27A35.93 35.93 0 0 1 0 68.924V6a6 6 0 0 1 6-6z"/>
        <filter id="a" width="130.2%" height="123.2%" x="-15.1%" y="-9.8%" filterUnits="objectBoundingBox">
            <feOffset dy="2" in="SourceAlpha" result="shadowOffsetOuter1"/>
            <feGaussianBlur in="shadowOffsetOuter1" result="shadowBlurOuter1" stdDeviation="4"/>
            <feColorMatrix in="shadowBlurOuter1" values="0 0 0 0 0 0 0 0 0 0 0 0 0 0 0 0 0 0 0.161440122 0"/>
        </filter>
        <rect id="c" width="70" height="96" rx="4"/>
        <linearGradient id="f" x1="50%" x2="50%" y1="15.836%" y2="55.189%">
            <stop offset="0%" stop-opacity=".164"/>
            <stop offset="100%" stop-opacity="0"/>
        </linearGradient>
        <rect id="e" width="70" height="96" x="8" y="8" rx="4"/>
    </defs>
    <g fill="none" fill-rule="evenodd" transform="translate(8 6)">
        <use fill="#000" filter="url(#a)" xlink:href="#b"/>
        <use fill="#FFF" xlink:href="#b"/>
        <g transform="translate(8 8)">
            <mask id="d" fill="#fff">
                <use xlink:href="#c"/>
            </mask>
            <g mask="url(#d)">
                <g transform="translate(-.785 -.05)">
                    <path fill="#D29252" fill-rule="nonzero" d="M.128 0h71.128v49.688H.128z"/>
                    <ellipse cx="35.63" cy="48.166" fill="#FFF" fill-rule="nonzero" stroke="#FFF" stroke-width="3.2" rx="18.324" ry="18.253"/>
                    <path d="M19.743 49.188a18.858 18.858 0 0 0 .004-.054 16.05 16.05 0 0 0 3.46 8.712c3.013 3.7 7.545 5.97 13.332 5.939h.068a16.633 16.633 0 0 0 8.774-3.397c3.75-2.94 6.055-7.402 6.048-13.073a16.057 16.057 0 0 0-3.463-8.701c-2.996-3.696-7.539-5.967-13.322-5.95-3.22.25-6.297 1.43-8.853 3.397-3.757 2.962-6.062 7.43-6.048 13.127z"/>
                    <path fill="#FDAF62" fill-rule="nonzero" d="M23.968 25.191a30.897 30.897 0 0 1 3.753-.26 25.815 25.815 0 0 1 12.438 3.144c7.485 3.991 11.51 12.237 11.266 19.261 0 5.672-2.298 10.136-6.047 13.074a16.633 16.633 0 0 1-8.771 3.375c7.062.192 15.408-3.742 19.454-11.08a24.754 24.754 0 0 0 3.217-12.233c-.093-13.419-9.007-24.388-24.505-26.834-.022 0-.397-.071-1.05-.157-.312-.039-.626-.074-.945-.11a33.47 33.47 0 0 0-1.208-.107l-.346-.01a50.216 50.216 0 0 0-1.22-.068c-.357 0-.678-.025-1.025-.032H26.792A41.496 41.496 0 0 0 .056 24.105l.072 27.95C1.95 37.41 11.676 26.785 23.968 25.19z"/>
                    <path fill="#D29252" fill-rule="nonzero" d="M36.539 63.785c-5.787.018-10.337-2.254-13.332-5.95a16.05 16.05 0 0 1-3.46-8.711c-.043 1.349.06 2.699.304 4.026v.09c.035.187.072.374.11.562l.047.203a19.7 19.7 0 0 0 .182.74c.029.1.06.228.093.356.032.128.075.253.11.381l.08.257c.047.15.096.3.146.452l.06.181c.06.171.122.342.187.513l.043.114c.071.19.146.38.225.57l.021.046a21.712 21.712 0 0 0 8.76 10.271 27.853 27.853 0 0 1 19.695 2.938c10.637-2.375 18.826-10.607 20.913-23.399a39.51 39.51 0 0 0 .532-6.455v-1.424C70.748 21.126 56.32 2.003 32.19.796a3.941 3.941 0 0 0-2.95 1.022 3.91 3.91 0 0 0-1.271 2.841l.039 8.48h.965c.357 0 .715.019 1.026.033.41 0 .815.039 1.219.067l.336.025a35.893 35.893 0 0 1 2.152.217c16.173 2.09 25.505 13.259 25.602 26.995a24.754 24.754 0 0 1-3.217 12.233C52.03 60.07 43.65 64.027 36.506 63.792h.08-.069l.022-.007z"/>
                    <path fill="#FFE6C2" fill-rule="nonzero" d="M21.373 57.611l-.021-.046c-.08-.19-.154-.38-.226-.57l-.043-.114c-.064-.17-.126-.341-.185-.512l-.061-.182c-.05-.15-.1-.299-.147-.452l-.078-.256a15.288 15.288 0 0 1-.204-.737c-.032-.128-.054-.2-.079-.3-.025-.099-.071-.295-.103-.44l-.047-.204c-.04-.188-.078-.374-.11-.562v-.09a18.858 18.858 0 0 1-.326-3.958c0-5.697 2.291-10.169 6.051-13.116a16.619 16.619 0 0 1 8.854-3.397c-7.077-.22-15.462 3.717-19.523 11.08a24.754 24.754 0 0 0-3.217 12.233c.047 6.736 2.32 12.852 6.527 17.584a27.676 27.676 0 0 1 11.67-5.696 21.694 21.694 0 0 1-8.732-10.265zM71.255 40.97c-.053 16.481-9.096 27.105-21.445 29.857a27.855 27.855 0 0 1 9.65 9.107c4.612-1.99 8.2-4.803 11.798-8.299l-.003-30.843v.178z"/>
                    <path fill="#FFD291" fill-rule="nonzero" d="M.01 56.664C.367 75.09 14.664 94.314 38.794 95.7a3.941 3.941 0 0 0 2.94-1.009 3.91 3.91 0 0 0 1.285-2.822v-8.502a42.783 42.783 0 0 1-6.738-.551c-15.476-2.557-24.305-13.59-24.305-27.009a24.755 24.755 0 0 1 3.289-12.212c4.114-7.334 12.527-11.207 19.6-10.937 5.788.025 10.32 2.329 13.286 6.053a16.056 16.056 0 0 1 3.4 8.737c.293-7.025-3.668-15.31-11.124-19.343a25.814 25.814 0 0 0-12.413-3.237C12.187 24.864-.398 36.584.01 56.664z"/>
                </g>
            </g>
        </g>
        <mask id="g" fill="#fff">
            <use xlink:href="#e"/>
        </mask>
        <use fill="url(#f)" xlink:href="#e"/>
        <path fill="#FFF" fill-rule="nonzero" d="M33.914 23v-7.59h5.05v1.252h-3.685v1.918h3.432v1.251h-3.432v1.88h3.684V23h-5.049zm5.664 0l1.837-2.707-1.837-2.659h1.595l1.112 1.767 1.111-1.767h1.606l-1.847 2.659L45.002 23h-1.606l-1.111-1.805L41.173 23h-1.595zm9.482.107c-2.509 0-3.663-1.836-3.663-3.904 0-2.068 1.154-3.905 3.663-3.905 2.508 0 3.663 1.837 3.663 3.905 0 2.068-1.155 3.904-3.663 3.904zm0-1.208c1.627 0 2.223-1.262 2.223-2.696 0-1.43-.596-2.691-2.223-2.691-1.628 0-2.224 1.262-2.224 2.69 0 1.435.596 2.697 2.224 2.697zM13.173 35l3.04-7.59h1.02L20.259 35h-1.472l-.607-1.649h-2.906L14.661 35h-1.488zm2.53-2.814h2.046l-1.02-2.772-1.026 2.772zM20.99 35l-.01-5.366h1.267v.672c.35-.597.902-.785 1.45-.785.607 0 1.268.231 1.585.946.43-.693 1.068-.946 1.718-.946 1.365 0 1.923 1.123 1.923 2.256V35h-1.31v-3.056c0-.66-.199-1.203-.876-1.203-.709 0-1.122.596-1.122 1.31V35h-1.31v-3.078c0-.65-.2-1.181-.871-1.181-.714 0-1.133.596-1.133 1.31V35h-1.31zm12.135.107c-.558 0-1.154-.182-1.53-.644V35H30.24v-7.59h1.354v2.761c.376-.462.934-.65 1.509-.65 1.51 0 2.32 1.3 2.32 2.793 0 1.488-.81 2.793-2.299 2.793zm-.327-1.208c.902 0 1.305-.693 1.305-1.585 0-.891-.403-1.606-1.305-1.606-.902 0-1.321.704-1.321 1.606 0 .903.419 1.585 1.32 1.585zm5.63-4.378c1.462 0 2.321.914 2.321 2.224V35h-1.08l-.08-.714c-.35.553-1.064.821-1.676.821-1.1 0-1.95-.633-1.95-1.756 0-1.165.935-1.552 2.138-1.552h1.456c-.027-.795-.263-1.133-1.117-1.133-.618 0-1.032.365-1.263.757l-1.004-.725c.516-.704 1.198-1.177 2.256-1.177zm-.252 4.48c.806 0 1.306-.58 1.386-1.214v-.043h-1.386c-.596 0-.87.312-.87.65 0 .355.285.607.87.607zm5.486 1.106c-1.128 0-1.987-.676-2.25-1.503l1.042-.462c.145.386.43.88 1.144.88.607 0 .87-.354.87-.639 0-.902-2.696-.295-2.696-2.191 0-1.133.956-1.67 1.992-1.67.924 0 1.628.44 2.036 1.165l-1.015.553c-.183-.333-.484-.682-1.064-.682-.43 0-.692.21-.692.462 0 .811 2.728.328 2.728 2.299 0 1.24-1.08 1.788-2.095 1.788zm4.783 0c-1.128 0-1.988-.676-2.25-1.503l1.041-.462c.145.386.43.88 1.144.88.607 0 .87-.354.87-.639 0-.902-2.696-.295-2.696-2.191 0-1.133.956-1.67 1.993-1.67.924 0 1.627.44 2.035 1.165l-1.015.553c-.182-.333-.483-.682-1.063-.682-.43 0-.693.21-.693.462 0 .811 2.728.328 2.728 2.299 0 1.24-1.08 1.788-2.094 1.788zm5.104-5.586c1.461 0 2.32.914 2.32 2.224V35h-1.08l-.08-.714c-.349.553-1.063.821-1.675.821-1.101 0-1.95-.633-1.95-1.756 0-1.165.934-1.552 2.138-1.552h1.455c-.027-.795-.263-1.133-1.117-1.133-.618 0-1.031.365-1.262.757l-1.005-.725c.516-.704 1.198-1.177 2.256-1.177zm-.252 4.48c.805 0 1.305-.58 1.386-1.214v-.043h-1.386c-.596 0-.87.312-.87.65 0 .355.284.607.87.607zm5.733 1.106c-1.51 0-2.326-1.294-2.326-2.793 0-1.482.817-2.793 2.304-2.793.559 0 1.155.188 1.526.65v-2.76h1.332V35h-1.22l-.059-.607c-.37.51-.966.714-1.557.714zm.317-1.187c.902 0 1.3-.692 1.3-1.606 0-.902-.398-1.606-1.3-1.606-.903 0-1.31.715-1.31 1.606 0 .903.407 1.606 1.31 1.606zm6.232 1.187c-1.66 0-2.75-1.283-2.75-2.803 0-1.515 1.09-2.783 2.75-2.783s2.75 1.268 2.75 2.783c0 1.52-1.09 2.803-2.75 2.803zm0-1.128c.994 0 1.386-.794 1.386-1.675s-.392-1.65-1.386-1.65c-.988 0-1.386.769-1.386 1.65 0 .88.398 1.675 1.386 1.675zM69.293 35v-5.366h1.278v.903a1.527 1.527 0 0 1 1.44-1.016c.354 0 .725.124.982.387l-.596 1.074a1.047 1.047 0 0 0-.585-.182c-.613 0-1.252.57-1.252 1.933V35h-1.267z" mask="url(#g)"/>
    </g>
</svg>
