<svg xmlns="http://www.w3.org/2000/svg" xmlns:xlink="http://www.w3.org/1999/xlink" width="102" height="128" viewBox="0 0 102 128">
    <defs>
        <path id="b" d="M6 0h74a6 6 0 0 1 6 6v76.728a6 6 0 0 1-2.751 5.044L57.942 104.07a2 2 0 0 0-.917 1.681v2.58a3.492 3.492 0 0 1-3.665 3.487l-6.841-.34a55.764 55.764 0 0 1-18.502-4.148A43.777 43.777 0 0 1 12.589 96.6l-3.027-3.27A35.93 35.93 0 0 1 0 68.924V6a6 6 0 0 1 6-6z"/>
        <filter id="a" width="130.2%" height="123.2%" x="-15.1%" y="-9.8%" filterUnits="objectBoundingBox">
            <feOffset dy="2" in="SourceAlpha" result="shadowOffsetOuter1"/>
            <feGaussianBlur in="shadowOffsetOuter1" result="shadowBlurOuter1" stdDeviation="4"/>
            <feColorMatrix in="shadowBlurOuter1" values="0 0 0 0 0 0 0 0 0 0 0 0 0 0 0 0 0 0 0.161440122 0"/>
        </filter>
        <rect id="c" width="70" height="96" rx="4"/>
    </defs>
    <g fill="none" fill-rule="evenodd">
        <g transform="translate(8 6)">
            <use fill="#000" filter="url(#a)" xlink:href="#b"/>
            <use fill="#FFF" xlink:href="#b"/>
        </g>
        <g transform="translate(16 14)">
            <mask id="d" fill="#fff">
                <use xlink:href="#c"/>
            </mask>
            <g mask="url(#d)">
                <g transform="translate(-.785 -.05)">
                    <path fill="#3B3B3F" fill-rule="nonzero" d="M.128 0h71.128v49.688H.128z"/>
                    <ellipse cx="35.63" cy="48.166" fill="#FFF" fill-rule="nonzero" stroke="#FFF" stroke-width="3.2" rx="18.324" ry="18.253"/>
                    <path d="M19.743 49.188a18.858 18.858 0 0 0 .004-.054 16.05 16.05 0 0 0 3.46 8.712c3.013 3.7 7.545 5.97 13.332 5.939h.068a16.633 16.633 0 0 0 8.774-3.397c3.75-2.94 6.055-7.402 6.048-13.073a16.057 16.057 0 0 0-3.463-8.701c-2.996-3.696-7.539-5.967-13.322-5.95-3.22.25-6.297 1.43-8.853 3.397-3.757 2.962-6.062 7.43-6.048 13.127z"/>
                    <path fill="#58585C" fill-rule="nonzero" d="M23.968 25.191a30.897 30.897 0 0 1 3.753-.26 25.815 25.815 0 0 1 12.438 3.144c7.485 3.991 11.51 12.237 11.266 19.261 0 5.672-2.298 10.136-6.047 13.074a16.633 16.633 0 0 1-8.771 3.375c7.062.192 15.408-3.742 19.454-11.08a24.754 24.754 0 0 0 3.217-12.233c-.093-13.419-9.007-24.388-24.505-26.834-.022 0-.397-.071-1.05-.157-.312-.039-.626-.074-.945-.11a33.47 33.47 0 0 0-1.208-.107l-.346-.01a50.216 50.216 0 0 0-1.22-.068c-.357 0-.678-.025-1.025-.032H26.792A41.496 41.496 0 0 0 .056 24.105l.072 27.95C1.95 37.41 11.676 26.785 23.968 25.19z"/>
                    <path fill="#3B3B3F" fill-rule="nonzero" d="M36.539 63.785c-5.787.018-10.337-2.254-13.332-5.95a16.05 16.05 0 0 1-3.46-8.711c-.043 1.349.06 2.699.304 4.026v.09c.035.187.072.374.11.562l.047.203a19.7 19.7 0 0 0 .182.74c.029.1.06.228.093.356.032.128.075.253.11.381l.08.257c.047.15.096.3.146.452l.06.181c.06.171.122.342.187.513l.043.114c.071.19.146.38.225.57l.021.046a21.712 21.712 0 0 0 8.76 10.271 27.853 27.853 0 0 1 19.695 2.938c10.637-2.375 18.826-10.607 20.913-23.399a39.51 39.51 0 0 0 .532-6.455v-1.424C70.748 21.126 56.32 2.003 32.19.796a3.941 3.941 0 0 0-2.95 1.022 3.91 3.91 0 0 0-1.271 2.841l.039 8.48h.965c.357 0 .715.019 1.026.033.41 0 .815.039 1.219.067l.336.025a35.893 35.893 0 0 1 2.152.217c16.173 2.09 25.505 13.259 25.602 26.995a24.754 24.754 0 0 1-3.217 12.233C52.03 60.07 43.65 64.027 36.506 63.792h.08-.069l.022-.007z"/>
                    <path fill="#ABABAD" fill-rule="nonzero" d="M21.373 57.611l-.021-.046c-.08-.19-.154-.38-.226-.57l-.043-.114c-.064-.17-.126-.341-.185-.512l-.061-.182c-.05-.15-.1-.299-.147-.452l-.078-.256a15.288 15.288 0 0 1-.204-.737c-.032-.128-.054-.2-.079-.3-.025-.099-.071-.295-.103-.44l-.047-.204c-.04-.188-.078-.374-.11-.562v-.09a18.858 18.858 0 0 1-.326-3.958c0-5.697 2.291-10.169 6.051-13.116a16.619 16.619 0 0 1 8.854-3.397c-7.077-.22-15.462 3.717-19.523 11.08a24.754 24.754 0 0 0-3.217 12.233c.047 6.736 2.32 12.852 6.527 17.584a27.676 27.676 0 0 1 11.67-5.696 21.694 21.694 0 0 1-8.732-10.265zM71.255 40.97c-.053 16.481-9.096 27.105-21.445 29.857a27.855 27.855 0 0 1 9.65 9.107c4.612-1.99 8.2-4.803 11.798-8.299l-.003-30.843v.178z"/>
                    <path fill="#79797C" fill-rule="nonzero" d="M.01 56.664C.367 75.09 14.664 94.314 38.794 95.7a3.941 3.941 0 0 0 2.94-1.009 3.91 3.91 0 0 0 1.285-2.822v-8.502a42.783 42.783 0 0 1-6.738-.551c-15.476-2.557-24.305-13.59-24.305-27.009a24.755 24.755 0 0 1 3.289-12.212c4.114-7.334 12.527-11.207 19.6-10.937 5.788.025 10.32 2.329 13.286 6.053a16.056 16.056 0 0 1 3.4 8.737c.293-7.025-3.668-15.31-11.124-19.343a25.814 25.814 0 0 0-12.413-3.237C12.187 24.864-.398 36.584.01 56.664z"/>
                </g>
            </g>
        </g>
        <g fill="#FFF" fill-rule="nonzero">
            <path d="M47.104 29.919H44.29v1.904h3.3V33h-4.765v-7.11h4.756v1.187h-3.291v1.694h2.813v1.148zm3.266-.625l.889-1.577h1.509l-1.504 2.588L52.83 33h-1.514l-.942-1.66-.938 1.66H47.92l1.567-2.695-1.499-2.588h1.514l.87 1.577zm9.009.312c0 .7-.124 1.314-.371 1.841a2.795 2.795 0 0 1-1.062 1.221c-.46.286-.989.43-1.585.43-.589 0-1.115-.142-1.577-.425a2.822 2.822 0 0 1-1.074-1.214c-.254-.525-.383-1.13-.386-1.813v-.352c0-.7.126-1.316.379-1.848.252-.532.608-.941 1.069-1.226.46-.285.987-.427 1.58-.427.592 0 1.119.142 1.58.427.46.285.816.694 1.068 1.226.253.532.379 1.146.379 1.843v.317zm-1.484-.322c0-.745-.134-1.312-.4-1.699-.268-.387-.649-.581-1.143-.581-.492 0-.871.191-1.138.574-.267.382-.402.943-.405 1.682v.346c0 .726.133 1.29.4 1.69.267.4.651.6 1.152.6.492 0 .87-.192 1.133-.578.264-.386.397-.948.4-1.687v-.347zm-29.859 10.81h-2.812V43h-1.465v-7.11h4.629v1.187h-3.164v1.836h2.812v1.182zm.889.216c0-.525.1-.992.303-1.402.201-.41.492-.727.871-.952.38-.225.82-.337 1.32-.337.714 0 1.296.218 1.747.654.45.437.702 1.03.754 1.778l.01.361c0 .81-.227 1.46-.679 1.95-.452.49-1.06.736-1.821.736-.762 0-1.37-.244-1.824-.733-.454-.488-.681-1.152-.681-1.992v-.063zm1.41.102c0 .501.095.885.284 1.15.189.265.46.398.81.398.342 0 .61-.131.801-.393.193-.262.289-.681.289-1.257 0-.492-.096-.873-.289-1.143-.192-.27-.462-.405-.81-.405-.345 0-.612.134-.8.403-.19.268-.284.684-.284 1.247zm7.628 2.05c-.348.424-.83.636-1.445.636-.567 0-.999-.163-1.297-.489-.298-.325-.45-.802-.456-1.43v-3.462h1.41v3.413c0 .55.251.825.753.825.478 0 .807-.166.986-.498v-3.74h1.416V43h-1.328l-.04-.537zm3.73-4.745l.044.61c.378-.472.884-.708 1.519-.708.56 0 .976.165 1.25.493.273.33.413.82.42 1.475V43h-1.411v-3.379c0-.3-.065-.517-.196-.652-.13-.135-.346-.202-.65-.202a.97.97 0 0 0-.893.507V43h-1.41v-5.283h1.327zm4.082 2.602c0-.823.185-1.48.555-1.967.37-.489.874-.733 1.516-.733.514 0 .939.192 1.274.576V35.5h1.416V43h-1.274l-.069-.562c-.351.44-.804.66-1.357.66-.622 0-1.12-.245-1.497-.735-.376-.49-.564-1.171-.564-2.044zm1.412.103c0 .495.086.874.258 1.138.173.263.423.395.752.395.436 0 .744-.184.923-.552v-2.085c-.176-.367-.48-.551-.913-.551-.68 0-1.02.551-1.02 1.655zM54.69 43a1.567 1.567 0 0 1-.141-.474c-.342.381-.786.572-1.333.572-.518 0-.947-.15-1.287-.45-.34-.299-.51-.677-.51-1.132 0-.56.207-.99.622-1.29.416-.299 1.015-.45 1.8-.454h.65v-.302c0-.244-.063-.44-.189-.586-.125-.147-.323-.22-.593-.22-.238 0-.424.057-.56.171a.58.58 0 0 0-.202.469h-1.41c0-.306.094-.59.282-.85.19-.26.456-.465.801-.613a2.918 2.918 0 0 1 1.162-.222c.651 0 1.168.164 1.55.49.383.328.574.788.574 1.38v2.29c.003.502.073.88.21 1.138V43h-1.426zm-1.167-.981c.209 0 .4-.047.577-.14a.914.914 0 0 0 .39-.373v-.908h-.527c-.707 0-1.082.244-1.128.732l-.005.083c0 .176.062.32.186.435.123.114.293.17.507.17zm5.157-5.601v1.299h.903v1.035h-.903v2.637c0 .195.037.335.112.42.075.084.218.127.43.127.156 0 .294-.012.415-.035v1.07a2.905 2.905 0 0 1-.855.127c-.99 0-1.494-.5-1.513-1.5v-2.846h-.772v-1.035h.772v-1.299h1.41zM61.859 43h-1.416v-5.283h1.416V43zm-1.499-6.65c0-.212.071-.386.213-.523.141-.137.334-.205.578-.205.241 0 .433.068.577.205a.69.69 0 0 1 .214.523c0 .214-.072.39-.217.527-.145.137-.336.205-.574.205-.237 0-.429-.068-.573-.205a.693.693 0 0 1-.218-.527zm2.442 3.96c0-.525.1-.992.302-1.402.202-.41.493-.727.872-.952.38-.225.82-.337 1.32-.337.714 0 1.296.218 1.746.654.451.437.703 1.03.755 1.778l.01.361c0 .81-.227 1.46-.68 1.95-.452.49-1.059.736-1.82.736-.762 0-1.37-.244-1.824-.733-.454-.488-.681-1.152-.681-1.992v-.063zm1.41.102c0 .501.095.885.284 1.15.189.265.46.398.81.398.342 0 .61-.131.801-.393.192-.262.289-.681.289-1.257 0-.492-.097-.873-.289-1.143-.192-.27-.462-.405-.81-.405-.345 0-.612.134-.8.403-.19.268-.284.684-.284 1.247zm5.763-2.695l.044.61c.377-.472.883-.708 1.518-.708.56 0 .977.165 1.25.493.274.33.414.82.42 1.475V43h-1.411v-3.379c0-.3-.065-.517-.195-.652s-.347-.202-.65-.202a.97.97 0 0 0-.893.507V43h-1.412v-5.283h1.329zm7.163 3.823c0-.172-.086-.308-.257-.408-.17-.099-.445-.188-.822-.266-1.257-.263-1.885-.797-1.885-1.601 0-.47.194-.86.583-1.175.39-.314.898-.47 1.526-.47.67 0 1.207.157 1.61.473.401.316.602.726.602 1.23h-1.411a.683.683 0 0 0-.195-.5c-.13-.132-.334-.198-.61-.198-.238 0-.422.054-.552.161a.509.509 0 0 0-.196.41c0 .157.074.283.222.379.149.096.398.179.75.249.351.07.648.149.889.237.745.273 1.118.747 1.118 1.42 0 .482-.207.872-.62 1.17-.414.298-.948.447-1.602.447-.443 0-.836-.08-1.18-.237a1.978 1.978 0 0 1-.807-.65 1.509 1.509 0 0 1-.293-.89h1.338c.013.25.105.442.278.575.173.134.404.2.693.2.27 0 .475-.05.613-.153a.479.479 0 0 0 .208-.403zM34.434 21.059c-1.363 0-2.004-.994-2.004-2.13 0-1.134.635-2.136 1.998-2.136.82 0 1.476.416 1.81 1.19l-.694.275c-.155-.545-.583-.756-1.122-.756-.876 0-1.254.63-1.254 1.397 0 .824.378 1.454 1.266 1.454.533 0 .899-.211 1.122-.768l.688.281c-.328.774-.987 1.193-1.81 1.193zM37.775 21v-4.14h2.754v.683h-2.01v1.046h1.872v.682H38.52v1.026h2.01V21h-2.754zm4.505 0v-4.14h1.339c.773 0 1.432.443 1.432 1.22 0 .52-.34.916-.808 1.077L45.394 21h-.853l-1.02-1.77h-.497V21h-.744zm.75-2.376h.656c.395-.018.63-.223.63-.533 0-.343-.267-.566-.692-.566h-.594v1.099zM47.675 21v-3.475h-1.298v-.665h3.337v.665h-1.295V21h-.744zm3.49 0v-4.14h.745V21h-.744zm2.669 0v-4.14h2.935v.683h-2.191v1.046h1.933v.682h-1.933V21h-.744zm4.475 0v-4.14h.744V21h-.744zm2.668 0v-4.14h2.753v.683h-2.01v1.046h1.873v.682H61.72v1.026h2.01V21h-2.754zm4.504 0v-4.14h1.201c1.41 0 2.154.756 2.154 2.1 0 1.29-.768 2.04-2.16 2.04h-1.195zm.744-.683h.378c.914 0 1.488-.354 1.488-1.388 0-.982-.4-1.386-1.42-1.386h-.446v2.774z"/>
        </g>
    </g>
</svg>
