<svg xmlns="http://www.w3.org/2000/svg" xmlns:xlink="http://www.w3.org/1999/xlink" width="102" height="128" viewBox="0 0 102 128">
    <defs>
        <path id="b" d="M6 0h74a6 6 0 0 1 6 6v76.728a6 6 0 0 1-2.751 5.044L57.942 104.07a2 2 0 0 0-.917 1.681v2.58a3.492 3.492 0 0 1-3.665 3.487l-6.841-.34a55.764 55.764 0 0 1-18.502-4.148A43.777 43.777 0 0 1 12.589 96.6l-3.027-3.27A35.93 35.93 0 0 1 0 68.924V6a6 6 0 0 1 6-6z"/>
        <filter id="a" width="130.2%" height="123.2%" x="-15.1%" y="-9.8%" filterUnits="objectBoundingBox">
            <feOffset dy="2" in="SourceAlpha" result="shadowOffsetOuter1"/>
            <feGaussianBlur in="shadowOffsetOuter1" result="shadowBlurOuter1" stdDeviation="4"/>
            <feColorMatrix in="shadowBlurOuter1" values="0 0 0 0 0 0 0 0 0 0 0 0 0 0 0 0 0 0 0.161440122 0"/>
        </filter>
        <rect id="c" width="70" height="96" rx="4"/>
        <linearGradient id="f" x1="50%" x2="50%" y1="15.836%" y2="46.595%">
            <stop offset="0%" stop-opacity=".164"/>
            <stop offset="100%" stop-opacity="0"/>
        </linearGradient>
        <rect id="e" width="70" height="96" rx="4"/>
    </defs>
    <g fill="none" fill-rule="evenodd">
        <g transform="translate(8 6)">
            <use fill="#000" filter="url(#a)" xlink:href="#b"/>
            <use fill="#FFF" xlink:href="#b"/>
        </g>
        <g transform="translate(16 14)">
            <mask id="d" fill="#fff">
                <use xlink:href="#c"/>
            </mask>
            <g mask="url(#d)">
                <g transform="translate(-.785 -.05)">
                    <path fill="#00A4AB" fill-rule="nonzero" d="M.128 0h71.128v49.688H.128z"/>
                    <ellipse cx="35.63" cy="48.166" fill="#FFF" fill-rule="nonzero" stroke="#FFF" stroke-width="3.2" rx="18.324" ry="18.253"/>
                    <path d="M19.743 49.188a18.858 18.858 0 0 0 .004-.054 16.05 16.05 0 0 0 3.46 8.712c3.013 3.7 7.545 5.97 13.332 5.939h.068a16.633 16.633 0 0 0 8.774-3.397c3.75-2.94 6.055-7.402 6.048-13.073a16.057 16.057 0 0 0-3.463-8.701c-2.996-3.696-7.539-5.967-13.322-5.95-3.22.25-6.297 1.43-8.853 3.397-3.757 2.962-6.062 7.43-6.048 13.127z"/>
                    <path fill="#45CEB3" fill-rule="nonzero" d="M23.968 25.191a30.897 30.897 0 0 1 3.753-.26 25.815 25.815 0 0 1 12.438 3.144c7.485 3.991 11.51 12.237 11.266 19.261 0 5.672-2.298 10.136-6.047 13.074a16.633 16.633 0 0 1-8.771 3.375c7.062.192 15.408-3.742 19.454-11.08a24.754 24.754 0 0 0 3.217-12.233c-.093-13.419-9.007-24.388-24.505-26.834-.022 0-.397-.071-1.05-.157-.312-.039-.626-.074-.945-.11a33.47 33.47 0 0 0-1.208-.107l-.346-.01a50.216 50.216 0 0 0-1.22-.068c-.357 0-.678-.025-1.025-.032H26.792A41.496 41.496 0 0 0 .056 24.105l.072 27.95C1.95 37.41 11.676 26.785 23.968 25.19z"/>
                    <path fill="#00A4AB" fill-rule="nonzero" d="M36.539 63.785c-5.787.018-10.337-2.254-13.332-5.95a16.05 16.05 0 0 1-3.46-8.711c-.043 1.349.06 2.699.304 4.026v.09c.035.187.072.374.11.562l.047.203a19.7 19.7 0 0 0 .182.74c.029.1.06.228.093.356.032.128.075.253.11.381l.08.257c.047.15.096.3.146.452l.06.181c.06.171.122.342.187.513l.043.114c.071.19.146.38.225.57l.021.046a21.712 21.712 0 0 0 8.76 10.271 27.853 27.853 0 0 1 19.695 2.938c10.637-2.375 18.826-10.607 20.913-23.399a39.51 39.51 0 0 0 .532-6.455v-1.424C70.748 21.126 56.32 2.003 32.19.796a3.941 3.941 0 0 0-2.95 1.022 3.91 3.91 0 0 0-1.271 2.841l.039 8.48h.965c.357 0 .715.019 1.026.033.41 0 .815.039 1.219.067l.336.025a35.893 35.893 0 0 1 2.152.217c16.173 2.09 25.505 13.259 25.602 26.995a24.754 24.754 0 0 1-3.217 12.233C52.03 60.07 43.65 64.027 36.506 63.792h.08-.069l.022-.007z"/>
                    <path fill="#BBEDE3" fill-rule="nonzero" d="M21.373 57.611l-.021-.046c-.08-.19-.154-.38-.226-.57l-.043-.114c-.064-.17-.126-.341-.185-.512l-.061-.182c-.05-.15-.1-.299-.147-.452l-.078-.256a15.288 15.288 0 0 1-.204-.737c-.032-.128-.054-.2-.079-.3-.025-.099-.071-.295-.103-.44l-.047-.204c-.04-.188-.078-.374-.11-.562v-.09a18.858 18.858 0 0 1-.326-3.958c0-5.697 2.291-10.169 6.051-13.116a16.619 16.619 0 0 1 8.854-3.397c-7.077-.22-15.462 3.717-19.523 11.08a24.754 24.754 0 0 0-3.217 12.233c.047 6.736 2.32 12.852 6.527 17.584a27.676 27.676 0 0 1 11.67-5.696 21.694 21.694 0 0 1-8.732-10.265zM71.255 40.97c-.053 16.481-9.096 27.105-21.445 29.857a27.855 27.855 0 0 1 9.65 9.107c4.612-1.99 8.2-4.803 11.798-8.299l-.003-30.843v.178z"/>
                    <path fill="#88DFCE" fill-rule="nonzero" d="M.01 56.664C.367 75.09 14.664 94.314 38.794 95.7a3.941 3.941 0 0 0 2.94-1.009 3.91 3.91 0 0 0 1.285-2.822v-8.502a42.783 42.783 0 0 1-6.738-.551c-15.476-2.557-24.305-13.59-24.305-27.009a24.755 24.755 0 0 1 3.289-12.212c4.114-7.334 12.527-11.207 19.6-10.937 5.788.025 10.32 2.329 13.286 6.053a16.056 16.056 0 0 1 3.4 8.737c.293-7.025-3.668-15.31-11.124-19.343a25.814 25.814 0 0 0-12.413-3.237C12.187 24.864-.398 36.584.01 56.664z"/>
                </g>
            </g>
        </g>
        <g transform="translate(16 14)">
            <mask id="g" fill="#fff">
                <use xlink:href="#e"/>
            </mask>
            <use fill="url(#f)" xlink:href="#e"/>
            <path fill="#FFF" fill-rule="nonzero" d="M31.104 15.919H28.29v1.904h3.3V19h-4.765v-7.11h4.756v1.187h-3.291v1.694h2.813v1.148zm3.266-.625l.889-1.577h1.509l-1.504 2.588L36.83 19h-1.514l-.942-1.66-.938 1.66H31.92l1.567-2.695-1.499-2.588h1.514l.87 1.577zm9.009.312c0 .7-.124 1.314-.371 1.841a2.795 2.795 0 0 1-1.062 1.221c-.46.286-.989.43-1.585.43-.589 0-1.115-.142-1.577-.425a2.822 2.822 0 0 1-1.074-1.214c-.254-.525-.383-1.13-.386-1.813v-.352c0-.7.126-1.316.379-1.848.252-.532.608-.941 1.069-1.226.46-.285.987-.427 1.58-.427.592 0 1.119.142 1.58.427.46.285.816.694 1.068 1.226.253.532.379 1.146.379 1.843v.317zm-1.484-.322c0-.745-.134-1.312-.4-1.699-.268-.387-.649-.581-1.143-.581-.492 0-.871.191-1.138.574-.267.382-.402.943-.405 1.682v.346c0 .726.133 1.29.4 1.69.267.4.651.6 1.152.6.492 0 .87-.192 1.133-.578.264-.386.397-.948.4-1.687v-.347zM16.763 26.632c-.056.765-.338 1.367-.847 1.806-.51.44-1.181.66-2.015.66-.911 0-1.628-.307-2.15-.92-.523-.614-.784-1.457-.784-2.528v-.434c0-.684.12-1.286.361-1.807.241-.52.585-.92 1.033-1.199.447-.278.967-.417 1.56-.417.82 0 1.481.22 1.982.66.502.439.791 1.055.87 1.85h-1.465c-.036-.46-.164-.792-.384-.999-.22-.207-.554-.31-1.003-.31-.488 0-.854.175-1.096.525-.243.35-.367.893-.374 1.628v.538c0 .768.117 1.33.35 1.684.232.355.6.532 1.1.532.453 0 .79-.103 1.014-.31.223-.206.35-.526.383-.96h1.465zm.65-.322c0-.525.1-.992.302-1.402.202-.41.492-.727.871-.952.38-.225.82-.337 1.321-.337.713 0 1.295.218 1.746.654.45.437.702 1.03.754 1.778l.01.361c0 .81-.226 1.46-.679 1.95-.452.49-1.06.736-1.821.736-.762 0-1.37-.244-1.824-.733-.454-.488-.68-1.152-.68-1.992v-.063zm1.41.102c0 .501.095.885.283 1.15.19.265.46.398.811.398.342 0 .609-.131.8-.393.193-.262.289-.681.289-1.257 0-.492-.096-.873-.288-1.143-.192-.27-.462-.405-.81-.405-.346 0-.613.134-.802.403-.188.268-.283.684-.283 1.247zm5.762-2.695l.044.61c.378-.472.884-.708 1.518-.708.56 0 .977.165 1.25.493.274.33.414.82.42 1.475V29h-1.41v-3.379c0-.3-.066-.517-.196-.652s-.347-.202-.65-.202a.97.97 0 0 0-.893.507V29h-1.411v-5.283h1.328zm7.163 3.823c0-.172-.085-.308-.256-.408-.171-.099-.445-.188-.823-.266-1.257-.263-1.885-.797-1.885-1.601 0-.47.195-.86.584-1.175.389-.314.897-.47 1.526-.47.67 0 1.206.157 1.608.473.402.316.603.726.603 1.23h-1.41a.683.683 0 0 0-.196-.5c-.13-.132-.334-.198-.61-.198-.238 0-.422.054-.552.161a.509.509 0 0 0-.195.41c0 .157.074.283.222.379.148.096.398.179.75.249.35.07.647.149.888.237.745.273 1.118.747 1.118 1.42 0 .482-.207.872-.62 1.17-.413.298-.947.447-1.602.447-.442 0-.835-.08-1.179-.237a1.978 1.978 0 0 1-.808-.65 1.509 1.509 0 0 1-.293-.89h1.338c.013.25.106.442.278.575.173.134.404.2.694.2.27 0 .474-.05.613-.153a.479.479 0 0 0 .207-.403zm5.444.923c-.348.423-.83.635-1.445.635-.566 0-.998-.163-1.296-.489-.298-.325-.45-.802-.457-1.43v-3.462h1.411v3.413c0 .55.25.825.752.825.479 0 .808-.166.987-.498v-3.74h1.416V29H37.23l-.039-.537zm3.921.537h-1.416v-7.5h1.416V29zm2.852-6.582v1.299h.903v1.035h-.903v2.637c0 .195.037.335.112.42.075.084.218.127.43.127.156 0 .294-.012.415-.035v1.07a2.905 2.905 0 0 1-.855.127c-.99 0-1.494-.5-1.513-1.5v-2.846h-.772v-1.035h.772v-1.299h1.41zM48.715 29a1.567 1.567 0 0 1-.14-.474c-.343.381-.787.572-1.334.572-.517 0-.946-.15-1.286-.45-.34-.299-.51-.677-.51-1.132 0-.56.207-.99.622-1.29.415-.299 1.015-.45 1.8-.454h.649v-.302c0-.244-.063-.44-.188-.586-.126-.147-.323-.22-.594-.22-.237 0-.424.057-.559.171a.58.58 0 0 0-.202.469h-1.411c0-.306.094-.59.283-.85.189-.26.455-.465.8-.613a2.918 2.918 0 0 1 1.163-.222c.65 0 1.167.164 1.55.49.382.328.574.788.574 1.38v2.29c.003.502.073.88.21 1.138V29h-1.426zm-1.166-.981c.208 0 .4-.047.576-.14a.914.914 0 0 0 .39-.373v-.908h-.527c-.706 0-1.082.244-1.128.732l-.005.083c0 .176.062.32.186.435.124.114.293.17.508.17zm4.765-4.302l.044.61c.378-.472.884-.708 1.519-.708.56 0 .977.165 1.25.493.273.33.413.82.42 1.475V29h-1.411v-3.379c0-.3-.065-.517-.196-.652-.13-.135-.346-.202-.649-.202a.97.97 0 0 0-.894.507V29h-1.41v-5.283h1.327zm5.992-1.299v1.299h.903v1.035h-.903v2.637c0 .195.037.335.112.42.075.084.218.127.43.127.156 0 .294-.012.415-.035v1.07a2.905 2.905 0 0 1-.855.127c-.99 0-1.494-.5-1.513-1.5v-2.846h-.772v-1.035h.772v-1.299h1.41zM18.434 7.059c-1.363 0-2.004-.994-2.004-2.13 0-1.134.635-2.136 1.998-2.136.82 0 1.476.416 1.81 1.19l-.694.275c-.155-.545-.583-.756-1.122-.756-.876 0-1.254.63-1.254 1.397 0 .824.378 1.454 1.266 1.454.533 0 .899-.211 1.122-.768l.688.281c-.328.774-.987 1.193-1.81 1.193zM21.775 7V2.86h2.754v.683h-2.01v1.046h1.872v.682H22.52v1.026h2.01V7h-2.754zm4.505 0V2.86h1.339c.773 0 1.432.443 1.432 1.22 0 .52-.34.916-.808 1.077L29.394 7h-.853l-1.02-1.77h-.497V7h-.744zm.75-2.376h.656c.395-.018.63-.223.63-.533 0-.343-.267-.566-.692-.566h-.594v1.099zM31.675 7V3.525h-1.298V2.86h3.337v.665h-1.295V7h-.744zm3.49 0V2.86h.745V7h-.744zm2.669 0V2.86h2.935v.683h-2.191v1.046h1.933v.682h-1.933V7h-.744zm4.475 0V2.86h.744V7h-.744zm2.668 0V2.86h2.753v.683h-2.01v1.046h1.873v.682H45.72v1.026h2.01V7h-2.754zm4.504 0V2.86h1.201c1.41 0 2.154.756 2.154 2.1 0 1.29-.768 2.04-2.16 2.04h-1.195zm.744-.683h.378c.914 0 1.488-.354 1.488-1.388 0-.982-.4-1.386-1.42-1.386h-.446v2.774z" mask="url(#g)"/>
        </g>
    </g>
</svg>
