<?xml version="1.0" encoding="UTF-8"?><!DOCTYPE svg PUBLIC "-//W3C//DTD SVG 1.1//EN" "http://www.w3.org/Graphics/SVG/1.1/DTD/svg11.dtd"><svg xmlns="http://www.w3.org/2000/svg" width="62" height="58" viewBox="0 0 62 58">
    <g fill="none" fill-rule="nonzero">
        <g fill="#F7CF8D">
            <path d="M51.693 9H34.53a2.817 2.817 0 0 0-2.823 2.81v17.086a2.817 2.817 0 0 0 2.823 2.81h8.214c-.107 4.474-1.152 8.054-3.128 10.746-1.558 2.124-3.918 3.884-7.074 5.272a2.801 2.801 0 0 0-1.4 3.771l2.033 4.271a2.828 2.828 0 0 0 3.675 1.372c3.737-1.608 6.893-3.642 9.467-6.115 3.14-3.018 5.29-6.424 6.453-10.223 1.163-3.8 1.745-8.982 1.745-15.557V11.81A2.818 2.818 0 0 0 51.693 9zM5.986 57.135c3.692-1.602 6.831-3.637 9.423-6.104 3.167-3.02 5.329-6.414 6.492-10.186 1.163-3.772 1.744-8.972 1.744-15.6V11.812A2.818 2.818 0 0 0 20.823 9H3.66a2.818 2.818 0 0 0-2.822 2.81V28.9a2.818 2.818 0 0 0 2.822 2.81h8.214c-.107 4.475-1.151 8.055-3.127 10.748-1.558 2.125-3.918 3.884-7.074 5.273a2.802 2.802 0 0 0-1.4 3.772l2.027 4.26c.655 1.372 2.286 1.98 3.686 1.372z"/>
        </g>
        <g fill="#FBE7C6">
            <path d="M58.693 0H41.53a2.817 2.817 0 0 0-2.823 2.81v17.086a2.817 2.817 0 0 0 2.823 2.81h8.214c-.107 4.474-1.152 8.054-3.128 10.746-1.558 2.124-3.918 3.884-7.074 5.272a2.801 2.801 0 0 0-1.4 3.771l2.033 4.271a2.828 2.828 0 0 0 3.675 1.372c3.737-1.608 6.893-3.642 9.467-6.115 3.14-3.018 5.29-6.424 6.453-10.223 1.163-3.8 1.745-8.982 1.745-15.557V2.81A2.818 2.818 0 0 0 58.693 0zM12.986 48.135c3.692-1.602 6.831-3.637 9.423-6.104 3.167-3.02 5.329-6.414 6.492-10.186 1.163-3.772 1.744-8.972 1.744-15.6V2.812A2.818 2.818 0 0 0 27.823 0H10.66a2.818 2.818 0 0 0-2.822 2.81V19.9a2.818 2.818 0 0 0 2.822 2.81h8.214c-.107 4.475-1.151 8.055-3.127 10.748-1.558 2.125-3.918 3.884-7.074 5.273a2.802 2.802 0 0 0-1.4 3.772l2.027 4.26c.655 1.372 2.286 1.98 3.686 1.372z"/>
        </g>
    </g>
</svg>
