<?xml version="1.0" encoding="UTF-8"?><!DOCTYPE svg PUBLIC "-//W3C//DTD SVG 1.1//EN" "http://www.w3.org/Graphics/SVG/1.1/DTD/svg11.dtd"><svg xmlns="http://www.w3.org/2000/svg" width="32" height="32" viewBox="0 0 32 32">
    <g fill="none" fill-rule="evenodd">
        <path d="M0 0h32v32H0z"/>
        <path fill="#46464B" fill-opacity=".749" d="M21.398 4.338C26.904 5.645 31 10.594 31 16.5c0 5.906-4.096 10.855-9.602 12.162C25.372 26.076 28 21.595 28 16.5c0-5.095-2.628-9.576-6.602-12.162z"/>
        <path fill="#46464B" fill-opacity=".749" fill-rule="nonzero" d="M13.5 4C6.6 4 1 9.6 1 16.5S6.6 29 13.5 29 26 23.4 26 16.5 20.4 4 13.5 4zM11 22.75L4.75 16.5l1.763-1.762L11 19.212l9.488-9.487L22.25 11.5 11 22.75z"/>
    </g>
</svg>
