<?xml version="1.0" encoding="UTF-8"?><!DOCTYPE svg PUBLIC "-//W3C//DTD SVG 1.1//EN" "http://www.w3.org/Graphics/SVG/1.1/DTD/svg11.dtd"><svg xmlns="http://www.w3.org/2000/svg" xmlns:xlink="http://www.w3.org/1999/xlink" width="233" height="207" viewBox="0 0 233 207">
    <defs>
        <path id="a" d="M.24.013h188.09V193.52H.24z"/>
        <path id="c" d="M.15.188h75.11v74.887H.15z"/>
        <path id="e" d="M.06.336h39.61v39.577H.06z"/>
        <path id="g" d="M0 241.998V.09h279.87v241.907"/>
        <path id="i" d="M.268.032h83.927v73.192H.268z"/>
        <path id="k" d="M.146.172h73.737v83.974H.146z"/>
    </defs>
    <g fill="none" fill-rule="evenodd">
        <g transform="translate(44.233 11.12)">
            <mask id="b" fill="#fff">
                <use xlink:href="#a"/>
            </mask>
            <path fill="#FFC979" fill-opacity=".28" d="M.612 24.73l28.606 151.775c2.974 15.769 21.965 22.418 34.188 11.97l117.621-100.57c12.221-10.449 8.507-30.16-6.687-35.482L28.11 1.22C12.918-4.1-2.359 8.962.612 24.73" mask="url(#b)"/>
        </g>
        <g transform="translate(33.194 98.481)">
            <mask id="d" fill="#fff">
                <use xlink:href="#c"/>
            </mask>
            <path fill="#FFC979" d="M15.025 7.571L.487 62.663c-1.944 7.364 4.852 14.058 12.233 12.052l55.218-15.018c7.378-2.008 9.807-11.21 4.372-16.566L31.628 3.055C26.194-2.301 16.968.21 15.025 7.57" mask="url(#d)"/>
        </g>
        <g transform="translate(-21 -18)">
            <g transform="translate(73.224 132.415)">
                <mask id="f" fill="#fff">
                    <use xlink:href="#e"/>
                </mask>
                <path fill="#FDAF62" d="M5.963 7.172L.37 28.422C-1.425 35.238 4.85 41.44 11.666 39.58l21.24-5.791c6.817-1.858 9.058-10.38 4.04-15.34L21.295 2.99C16.275-1.967 7.758.354 5.963 7.172" mask="url(#f)"/>
            </g>
            <mask id="h" fill="#fff">
                <use xlink:href="#g"/>
            </mask>
            <path fill="#6128FF" d="M167.06 82.695c-8.117-8.101-8.117-21.234 0-29.333 8.12-8.1 21.283-8.1 29.4 0 8.122 8.099 8.122 21.232 0 29.333-8.117 8.1-21.28 8.1-29.4 0m6.872 100.287L226.57 77.17C244.1 44.406 211.84 4.837 172.277 23L66.224 75.518c-19.376 8.46-23.434 26.584-10.583 39.404l78.797 78.617c12.85 12.822 31.66 9.679 39.494-10.557" mask="url(#h)"/>
        </g>
        <g transform="translate(.075 41.245)">
            <mask id="j" fill="#fff">
                <use xlink:href="#i"/>
            </mask>
            <path fill="#FF7172" d="M81.346 10.565C96.77 25.872 44.165 58.887 52.399 71.98c.212.337.183.824.266 1.244C38.327 59.072 17.53 38.693 3.329 24.402-2.345 18.692.154 10.314 8.46 5.78c13.733-7.5 58.671-9.32 72.886 4.786" mask="url(#j)"/>
        </g>
        <g transform="translate(91.401 122.58)">
            <mask id="l" fill="#fff">
                <use xlink:href="#k"/>
            </mask>
            <path fill="#FF7172" d="M63.27 3.023C47.85-12.411 14.588 40.225 1.399 31.985c-.34-.211-.83-.182-1.253-.265 14.258 14.346 34.788 35.157 49.188 49.364 5.75 5.674 14.19 3.177 18.762-5.135 7.553-13.74 9.386-58.704-4.824-72.926" mask="url(#l)"/>
        </g>
    </g>
</svg>
