<?xml version="1.0" encoding="UTF-8"?><svg xmlns="http://www.w3.org/2000/svg" viewBox="0 0 51.8 51.82"><defs><style>.cls-1{fill:#2e4668;}.cls-2{fill:#8b98ab;}.cls-3{fill:#5c6f89;}.cls-4{fill:#001e47;}</style></defs><title>footer logo</title><g id="Capa_2" data-name="Capa 2"><g id="Capa_1-2" data-name="Capa 1"><path class="cls-1" d="M21.32,6.72A21.83,21.83,0,0,0,0,27.55a2.12,2.12,0,0,0,2,2.26H6.73A22,22,0,0,1,7,26.21c1.42-8.3,7.45-13.06,14.77-13.06a13.68,13.68,0,0,1,6.67,1.76,11.91,11.91,0,0,1,6,10.53h0a8.64,8.64,0,0,1-8.07,9,11.91,11.91,0,0,0,10.56-6,13.68,13.68,0,0,0,1.77-6.67C38.68,13.26,32.28,6.5,21.32,6.72Z"/><path class="cls-2" d="M6.73,30.5A21.83,21.83,0,0,0,27.56,51.81a2.12,2.12,0,0,0,2.26-2s0-.08,0-.13V45.09a22.61,22.61,0,0,1-3.62-.3c-8.31-1.4-13.06-7.42-13.05-14.74a13.68,13.68,0,0,1,1.77-6.67,11.91,11.91,0,0,1,10.53-6h0a8.64,8.64,0,0,1,9,8.07,11.91,11.91,0,0,0-6-10.56,13.68,13.68,0,0,0-6.67-1.77C13.27,13.15,6.51,19.54,6.73,30.5Z"/><path class="cls-3" d="M30.49,45.09A21.83,21.83,0,0,0,51.8,24.26a2.12,2.12,0,0,0-2-2.26H45.09a22,22,0,0,1-.31,3.62c-1.4,8.3-7.42,13-14.77,13a13.68,13.68,0,0,1-6.64-1.75,11.91,11.91,0,0,1-6-10.53h0a8.63,8.63,0,0,1,8.07-9,11.9,11.9,0,0,0-10.56,6,13.68,13.68,0,0,0-1.77,6.67C13.14,38.55,19.53,45.31,30.49,45.09Z"/><path class="cls-4" d="M45.08,21.31A21.83,21.83,0,0,0,24.26,0,2.12,2.12,0,0,0,22,2s0,.07,0,.1V6.72A22.25,22.25,0,0,1,25.63,7c8.31,1.4,13.06,7.42,13,14.74a13.68,13.68,0,0,1-1.77,6.67,11.91,11.91,0,0,1-10.53,6h0a8.64,8.64,0,0,1-9-8.07,11.91,11.91,0,0,0,6,10.56A13.68,13.68,0,0,0,30,38.66C38.54,38.66,45.3,32.27,45.08,21.31Z"/></g></g></svg>
