<?xml version="1.0" encoding="UTF-8"?><!DOCTYPE svg PUBLIC "-//W3C//DTD SVG 1.1//EN" "http://www.w3.org/Graphics/SVG/1.1/DTD/svg11.dtd"><svg xmlns="http://www.w3.org/2000/svg" width="39" height="40" viewBox="0 0 39 40">
    <g fill="#FFF" fill-rule="evenodd">
        <path d="M27.6 22.026c.868-1.568 1.306-3.222 1.306-4.916 0-3.02-1.11-5.772-3.125-7.748-2.347-2.298-5.728-3.465-9.781-3.39C8.702 6.119.619 11.639.038 21.58a1.27 1.27 0 0 0 .332.919c.219.234.52.364.845.364l3.125.005c.045-1.316.203-2.242.234-2.418 1.064-6.32 5.683-10.405 11.773-10.405 1.842.001 3.645.477 5.344 1.414 2.958 1.635 4.943 5.125 4.815 8.487l-.008.3c-.075 1.984-.777 3.68-2.053 4.956 1.344-.782 2.446-1.888 3.155-3.176"/>
        <path d="M24.438 15.379c-.785-1.343-1.887-2.446-3.178-3.157-1.57-.865-3.222-1.304-4.913-1.304-3.019 0-5.773 1.11-7.75 3.124-2.295 2.343-3.465 5.724-3.39 9.778.144 7.304 5.668 15.38 15.608 15.961.347.019.68-.101.92-.329.235-.22.363-.52.363-.842l.008-3.128a17.174 17.174 0 0 1-2.423-.236c-6.317-1.061-10.4-5.683-10.4-11.772 0-1.845.475-3.64 1.411-5.339 1.638-2.966 5.125-4.946 8.49-4.819l.303.006c1.977.074 3.675.781 4.95 2.057"/>
        <path d="M11.442 18.555c-.868 1.568-1.306 3.222-1.306 4.916 0 3.02 1.11 5.772 3.124 7.749 2.348 2.296 5.729 3.463 9.782 3.388 7.305-.145 15.38-5.665 15.962-15.608a1.269 1.269 0 0 0-.332-.918 1.149 1.149 0 0 0-.846-.364l-3.124-.006a18.22 18.22 0 0 1-.234 2.419c-1.064 6.32-5.683 10.405-11.774 10.405-1.841 0-3.637-.476-5.343-1.414-2.966-1.637-4.943-5.13-4.815-8.494.007-2.109.717-3.907 2.06-5.248-1.343.782-2.445 1.887-3.154 3.175"/>
        <path d="M33.834 16.762C33.691 9.457 28.166 1.38 18.226.8c-.34-.021-.671.1-.92.33-.234.22-.363.52-.363.84l-.007 3.13c1.328.042 2.241.203 2.422.234 6.317 1.062 10.408 5.683 10.4 11.773 0 1.845-.475 3.64-1.41 5.339-1.646 2.977-5.095 4.95-8.491 4.819l-.302-.006c-1.978-.074-3.676-.781-4.951-2.057.785 1.342 1.887 2.446 3.177 3.157 1.57.865 3.223 1.304 4.913 1.304 3.027 0 5.774-1.109 7.751-3.123 2.295-2.344 3.472-5.725 3.389-9.778"/>
    </g>
</svg>
