<?xml version="1.0" encoding="UTF-8"?><!DOCTYPE svg PUBLIC "-//W3C//DTD SVG 1.1//EN" "http://www.w3.org/Graphics/SVG/1.1/DTD/svg11.dtd"><svg xmlns="http://www.w3.org/2000/svg" width="40" height="40" viewBox="0 0 40 40">
    <g fill="none" fill-rule="nonzero">
        <path fill="#FF7172" d="M16.396 5.407C8.747 5.538.79 11.385.22 21.23c-.044.923.66 1.714 1.582 1.714H5.32c0-1.626.22-2.725.22-2.77 1.054-6.329 5.626-9.933 11.208-9.933a9.89 9.89 0 0 1 5.055 1.362c3.033 1.67 4.66 5.1 4.528 8 0 2.374-.967 4.22-2.506 5.407a6.705 6.705 0 0 1-3.604 1.407c2.9.131 6.33-1.495 8-4.528.835-1.538 1.362-3.209 1.362-5.055 0-6.461-4.835-11.56-13.186-11.428z"/>
        <path fill="#001E47" d="M5.319 23.473c.132 7.648 5.978 15.604 15.824 16.175.923.044 1.714-.659 1.714-1.582v-3.517c-1.626 0-2.725-.22-2.77-.22-6.329-1.054-9.933-5.626-9.933-11.208a9.89 9.89 0 0 1 1.362-5.055c1.67-3.033 5.1-4.66 8-4.528 2.374 0 4.22.967 5.407 2.506a6.705 6.705 0 0 1 1.407 3.604c.132-2.9-1.495-6.33-4.528-8-1.538-.835-3.209-1.362-5.055-1.362-6.461 0-11.604 4.879-11.428 13.187z"/>
        <path fill="#6128FF" d="M23.385 34.55c7.648-.132 15.604-5.979 16.175-15.825.044-.923-.659-1.714-1.582-1.714h-3.516c0 1.626-.22 2.725-.22 2.77-1.055 6.329-5.627 9.933-11.209 9.933a9.89 9.89 0 0 1-5.055-1.362c-3.033-1.67-4.66-5.1-4.527-8 0-2.374.967-4.22 2.505-5.407 1.055-.835 2.374-1.319 3.604-1.363-2.9-.131-6.33 1.495-8 4.528-.835 1.538-1.362 3.209-1.362 5.055 0 6.417 4.835 11.56 13.187 11.384z"/>
        <path fill="#FFC979" d="M34.462 16.484C34.33 8.835 28.484.879 18.637.308c-.923-.044-1.714.659-1.714 1.582v3.517c1.626 0 2.725.22 2.77.22 6.329 1.054 9.933 5.626 9.933 11.208a9.89 9.89 0 0 1-1.362 5.055c-1.67 3.033-5.1 4.66-8 4.528-2.374 0-4.22-.967-5.407-2.506a6.705 6.705 0 0 1-1.406-3.604c-.132 2.9 1.494 6.33 4.527 8 1.538.835 3.209 1.362 5.055 1.362 6.462 0 11.604-4.835 11.429-13.186z"/>
    </g>
</svg>
