<?xml version="1.0" encoding="UTF-8"?><!DOCTYPE svg PUBLIC "-//W3C//DTD SVG 1.1//EN" "http://www.w3.org/Graphics/SVG/1.1/DTD/svg11.dtd"><svg xmlns="http://www.w3.org/2000/svg" viewBox="0 0 219.94 220.06"><defs><style>.cls-1{fill:#ff7172;}.cls-2{fill:#001e47;}.cls-3{fill:#6128ff;}.cls-4{fill:#ffc979;}</style></defs><title>Recurso 2</title><g id="Capa_2" data-name="Capa 2"><g id="Capa_1-2" data-name="Capa 1"><path class="cls-1" d="M90.5,28.57C47.79,29.42,3.23,62,0,117a9,9,0,0,0,8.87,9.64l19.64,0a93.27,93.27,0,0,1,1.31-15.37C35.78,76,61.35,55.88,92.46,55.89a58.11,58.11,0,0,1,28.31,7.5c17,9.38,26,28.57,25.35,44.7h0c-.05,13.19-5.39,23.53-14,30.3a37.56,37.56,0,0,1-20.25,7.74c16.28.67,35.46-8.36,44.84-25.36a58.11,58.11,0,0,0,7.5-28.31C164.2,56.34,137,27.64,90.5,28.57Z"/><path class="cls-2" d="M28.54,129.56C29.39,172.27,62,216.83,117,220a9,9,0,0,0,9.64-8.87l0-19.68a96,96,0,0,1-15.36-1.28C76,184.28,55.85,158.71,55.86,127.6a58.11,58.11,0,0,1,7.5-28.31c9.38-17,28.57-26,44.7-25.35h0c13.19.05,23.53,5.39,30.3,14a37.57,37.57,0,0,1,7.75,20.25c.67-16.28-8.37-35.46-25.37-44.84a58.11,58.11,0,0,0-28.31-7.5C56.31,55.86,27.61,83,28.54,129.56Z"/><path class="cls-3" d="M129.44,191.49c42.71-.85,87.27-33.43,90.48-88.44A9,9,0,0,0,211,93.41l-19.64,0a93.27,93.27,0,0,1-1.31,15.37c-5.93,35.29-31.5,55.44-62.61,55.43a58.11,58.11,0,0,1-28.31-7.5c-17-9.38-26-28.57-25.35-44.7h0c.05-13.19,5.39-23.53,14-30.3a37.54,37.54,0,0,1,20.25-7.73c-16.28-.67-35.46,8.34-44.84,25.34a58.11,58.11,0,0,0-7.5,28.31C55.74,163.72,82.9,192.42,129.44,191.49Z"/><path class="cls-4" d="M191.4,90.5C190.55,47.79,158,3.23,103,0a9,9,0,0,0-9.64,8.87l0,19.66a94.47,94.47,0,0,1,15.37,1.3c35.29,5.93,55.44,31.5,55.43,62.61a58.11,58.11,0,0,1-7.5,28.31c-9.38,17-28.57,26-44.7,25.35h0c-13.19-.05-23.53-5.39-30.3-14a37.56,37.56,0,0,1-7.74-20.25c-.67,16.28,8.36,35.46,25.36,44.84a58.11,58.11,0,0,0,28.31,7.5C163.63,164.2,192.33,137,191.4,90.5Z"/></g></g></svg>
