<?xml version="1.0" encoding="UTF-8"?>
<svg width="204px" height="40px" viewBox="0 0 204 40" version="1.1" xmlns="http://www.w3.org/2000/svg" xmlns:xlink="http://www.w3.org/1999/xlink">
    <!-- Generator: Sketch 52.6 (67491) - http://www.bohemiancoding.com/sketch -->
    <title>openexo_logo_rgb</title>
    <desc>Created with Sketch.</desc>
    <g id="Page-1" stroke="none" stroke-width="1" fill="none" fill-rule="evenodd">
        <g id="openexo_logo_rgb">
            <path d="M59.4395717,9.79811563 C65.2275803,9.79811563 69.5565739,14.166424 69.5565739,19.9937473 C69.5565739,25.8210707 65.2275803,30.189379 59.4395717,30.189379 C53.6515632,30.189379 49.3269379,25.8210707 49.3269379,19.9937473 C49.3269379,14.166424 53.6559315,9.79811563 59.4395717,9.79811563 Z M59.4395717,26.4457388 C63.0608994,26.4457388 65.6032548,23.5713919 65.6032548,19.9937473 C65.6032548,16.4161028 63.0608994,13.5417559 59.4395717,13.5417559 C55.8182441,13.5417559 53.2933619,16.4161028 53.2933619,19.9937473 C53.2933619,23.5713919 55.8182441,26.4457388 59.4395717,26.4457388 Z" id="Shape" fill="#001E47" fill-rule="nonzero"></path>
            <path d="M101.100128,20.8237259 C101.042934,20.8248052 100.988663,20.8492059 100.949896,20.891272 C100.911129,20.9333382 100.891232,20.989417 100.894818,21.0465096 C101.219097,24.2825002 103.950498,26.7415179 107.202655,26.7253105 C109.321195,26.7663881 111.343985,25.8441628 112.702355,24.2179015 C112.739282,24.1805528 112.78962,24.1595347 112.842141,24.1595347 C112.894663,24.1595347 112.945,24.1805528 112.981927,24.2179015 L115.284026,26.4020557 C115.354606,26.480214 115.354606,26.5991008 115.284026,26.6772591 C113.798801,28.4944754 111.051135,30.1719058 107.158972,30.1719058 C101.453961,30.1719058 97.04197,25.8429122 97.04197,19.9762741 C97.04197,14.109636 101.04334,9.79811563 106.586724,9.79811563 C112.042741,9.79811563 115.99606,14.2057388 115.99606,19.9937473 C115.998498,20.2710401 115.983909,20.548221 115.952377,20.8237259 L101.100128,20.8237259 Z M101.209336,17.4950749 L111.868009,17.4950749 C111.311463,15.0710282 109.190565,13.3269399 106.704668,13.2490792 C104.120089,13.2489623 101.861445,14.9941144 101.209336,17.4950749 Z" id="Shape" fill="#001E47" fill-rule="nonzero"></path>
            <path d="M83.2992719,9.79811563 L82.8624411,9.79811563 C81.8055003,9.7902157 80.7569327,9.98598788 79.7740471,10.3747323 C78.8994702,10.6796475 78.0728252,11.1076789 77.3190578,11.6459101 C77.2594925,11.6905841 77.1797991,11.69777 77.113203,11.664472 C77.0466069,11.6311739 77.0045396,11.5631077 77.0045396,11.488651 L77.0045396,10.4096788 C77.0021637,10.3004111 76.9128909,10.2130791 76.8035974,10.2131049 L73.3875803,10.2131049 C73.2782868,10.2130791 73.1890141,10.3004111 73.1866381,10.4096788 L73.1866381,39.4414561 C73.1890141,39.5507238 73.2782868,39.6380558 73.3875803,39.63803 L76.9433833,39.63803 C77.0519481,39.63803 77.1399572,39.5500209 77.1399572,39.4414561 L77.1399572,28.5862099 C77.1411314,28.5132984 77.1825705,28.4470279 77.2476087,28.4140508 C77.3126469,28.3810736 77.3905961,28.3868092 77.4501071,28.4289507 C79.1786438,29.59215 81.2203184,30.2016051 83.3036403,30.1762741 C89.0872805,30.1762741 93.4162741,25.8079657 93.4162741,19.9806424 C93.4162741,14.1533191 89.0829122,9.79811563 83.2992719,9.79811563 Z M83.2992719,26.4457388 C79.6779443,26.4457388 77.1399572,23.5757602 77.1355889,19.9981156 C77.1355889,16.4204711 79.6779443,13.5504925 83.2992719,13.5504925 C86.9205996,13.5504925 89.4585867,16.4204711 89.4585867,20.0024839 C89.4585867,23.5844968 86.9293362,26.4457388 83.2992719,26.4457388 Z" id="Shape" fill="#001E47" fill-rule="nonzero"></path>
            <path d="M171.9803,22.4487366 L166.755803,29.7044968 C166.718712,29.7568953 166.658372,29.7878808 166.594176,29.7874946 L162.383126,29.7874946 C162.307883,29.7891813 162.238282,29.7477583 162.203882,29.6808179 C162.169482,29.6138776 162.176323,29.5331719 162.221499,29.4729764 L169.271949,19.6573876 C169.349946,19.5491153 169.349946,19.4030903 169.271949,19.294818 L162.937901,10.5276231 C162.892725,10.4674277 162.885885,10.386722 162.920285,10.3197816 C162.954685,10.2528413 163.024286,10.2114183 163.099529,10.2131049 L167.271263,10.2131049 C167.333136,10.2131049 167.391399,10.242236 167.428522,10.2917345 L171.989036,16.5384154 L176.54955,10.2917345 C176.589279,10.2430783 176.648374,10.2143291 176.711178,10.2131049 L180.882912,10.2131049 C180.958155,10.2114183 181.027757,10.2528413 181.062157,10.3197816 C181.096556,10.386722 181.089716,10.4674277 181.04454,10.5276231 L174.693019,19.3122912 C174.615022,19.4205635 174.615022,19.5665885 174.693019,19.6748608 L181.743469,29.4598715 C181.788645,29.5200669 181.795486,29.6007726 181.761086,29.667713 C181.726686,29.7346534 181.657085,29.7760764 181.581842,29.7743897 L177.353319,29.7743897 C177.288942,29.775542 177.228265,29.7443833 177.191692,29.6913919 L171.9803,22.4487366 Z" id="Path" fill="#001E47"></path>
            <path d="M193.51606,9.79811563 C199.2997,9.79811563 203.628694,14.166424 203.628694,19.9937473 C203.628694,25.8210707 199.290964,30.189379 193.51606,30.189379 C187.741156,30.189379 183.403426,25.8210707 183.403426,19.9937473 C183.403426,14.166424 187.719315,9.79811563 193.51606,9.79811563 Z M193.51606,26.4457388 C197.137388,26.4457388 199.675375,23.5713919 199.675375,19.9937473 C199.675375,16.4161028 197.128651,13.5417559 193.51606,13.5417559 C189.903469,13.5417559 187.356745,16.4161028 187.356745,19.9937473 C187.356745,23.5713919 189.885996,26.4457388 193.51606,26.4457388 Z" id="Shape" fill="#001E47" fill-rule="nonzero"></path>
            <path d="M145.359829,20.8237259 C145.302634,20.8248052 145.248363,20.8492059 145.209596,20.891272 C145.170829,20.9333382 145.150933,20.989417 145.154518,21.0465096 C145.478797,24.2825002 148.210198,26.7415179 151.462355,26.7253105 C153.57851,26.7591702 155.596032,25.8323307 156.948951,24.2047966 C156.985878,24.1674479 157.036215,24.1464298 157.088737,24.1464298 C157.141258,24.1464298 157.191596,24.1674479 157.228522,24.2047966 L159.530621,26.3889507 C159.601202,26.4671091 159.601202,26.5859959 159.530621,26.6641542 C158.045396,28.4813704 155.29773,30.1588009 151.405567,30.1588009 C145.700557,30.1588009 141.292934,25.8298073 141.292934,19.9631692 C141.292934,14.096531 145.285567,9.76753747 150.820214,9.76753747 C156.276231,9.76753747 160.22955,14.1751606 160.22955,19.9631692 C160.231988,20.240462 160.2174,20.5176429 160.185867,20.7931478 L145.359829,20.8237259 Z M145.469036,17.4950749 L156.127709,17.4950749 C155.571163,15.0710282 153.450265,13.3269399 150.964368,13.2490792 C148.378163,13.246973 146.117187,14.9925404 145.464668,17.4950749 L145.469036,17.4950749 Z" id="Shape" fill="#001E47" fill-rule="nonzero"></path>
            <path d="M121.045824,10.2087366 L124.680257,10.2087366 C124.791234,10.2087366 124.881199,10.2987015 124.881199,10.4096788 L124.881199,12.2312634 C124.876545,12.3156411 124.927548,12.3931607 125.006878,12.4222818 C125.086208,12.4514028 125.175253,12.4252932 125.226296,12.3579443 C126.597593,10.7277186 128.626422,9.79663657 130.756574,9.81995717 C135.692762,9.81995717 137.745867,13.6597002 137.767709,17.7921199 L137.767709,29.5778158 C137.767709,29.6863806 137.6797,29.7743897 137.571135,29.7743897 L133.932334,29.7743897 C133.823041,29.7744156 133.733768,29.6870835 133.731392,29.5778158 L133.731392,18.416788 C133.731392,15.5162313 132.302955,13.5767024 129.620814,13.5767024 C126.720257,13.5767024 124.881199,15.2410278 124.881199,18.7880942 L124.881199,29.5778158 C124.878823,29.6870835 124.78955,29.7744156 124.680257,29.7743897 L121.045824,29.7743897 C120.936531,29.7744156 120.847258,29.6870835 120.844882,29.5778158 L120.844882,10.4096788 C120.844882,10.2987015 120.934847,10.2087366 121.045824,10.2087366 Z" id="Path" fill="#001E47"></path>
            <path d="M16.5209422,5.51280514 C7.85951146,5.70836106 0.829782813,12.5796249 0.436830835,21.2343469 C0.404187123,21.6742307 0.555229086,22.1079835 0.854035558,22.4324492 C1.15284203,22.756915 1.5727117,22.9430994 2.01379015,22.9467238 L5.50843683,22.9467238 C5.51168761,22.0318976 5.58911478,21.1188414 5.73995717,20.216531 C6.79708779,13.9480086 11.3576017,10.370364 16.8704069,10.370364 C18.6341149,10.377261 20.3666392,10.8359588 21.9026981,11.7026981 C24.7392051,13.3375626 26.463999,16.3839736 26.406424,19.6573876 C26.5417078,23.1865951 23.8413443,26.1814028 20.3170021,26.4107923 C23.5971836,26.4770271 26.6522245,24.7485171 28.2847966,21.9026981 C29.1528787,20.366976 29.6130742,18.6344754 29.6214989,16.8704069 C29.6214989,10.4489936 24.7945182,5.35117773 16.5209422,5.51280514 Z" id="Path" fill="#FF7172"></path>
            <path d="M5.50843683,23.4665525 C5.70852128,32.1269967 12.5804973,39.1535922 21.2343469,39.5462955 C21.6742307,39.5789392 22.1079835,39.4278973 22.4324492,39.1290908 C22.756915,38.8302843 22.9430994,38.4104146 22.9467238,37.9693362 L22.9467238,34.4746895 C22.0319677,34.4740314 21.1188187,34.3980574 20.216531,34.2475375 C13.9436403,33.1991435 10.3616274,28.6473662 10.3659957,23.1170878 C10.3728927,21.3533797 10.8315905,19.6208555 11.6983298,18.0847966 C13.3332703,15.2462131 16.3821819,13.5209509 19.6573876,13.5810707 C23.1801631,13.4479256 26.1702969,16.1400138 26.406424,19.6573876 C26.4665986,16.3810305 24.739287,13.3314552 21.8983298,11.6983298 C20.3614629,10.833579 18.6294649,10.3750204 16.8660385,10.3659957 C10.4446253,10.3659957 5.34680942,15.1929764 5.50843683,23.4665525 Z" id="Path" fill="#001E47"></path>
            <path d="M23.4447109,34.4703212 C32.1069461,34.2744897 39.1359627,27.4001458 39.524454,18.7444111 C39.5558318,18.3052535 39.404221,17.8726678 39.1055554,17.5491823 C38.8068898,17.2256969 38.3877562,17.040108 37.9474946,17.0364026 L34.452848,17.0364026 C34.4497374,17.9526834 34.3723101,18.8672023 34.2213276,19.7709636 C33.1685653,26.0394861 28.6255246,29.6171306 23.0952463,29.6171306 C21.3334668,29.6169054 19.6010638,29.1657588 18.062955,28.3066381 C15.2155583,26.6740082 13.4829296,23.620564 13.5417559,20.3388437 C13.3998398,16.7966874 16.1186916,13.7923563 19.6573876,13.5810707 C16.3742981,13.5078612 13.3139915,15.235778 11.6808565,18.0847966 C10.8127691,19.6189321 10.3525469,21.3500292 10.3441542,23.1127195 C10.3441542,29.5341328 15.1711349,34.6363169 23.4447109,34.4703212 Z" id="Path" fill="#6128FF"></path>
            <path d="M34.4572163,16.5209422 C34.2616604,7.85951146 27.3903965,0.829782813 18.7356745,0.436830835 C18.2972209,0.407930397 17.8662762,0.561255041 17.5446072,0.860597399 C17.2229382,1.15993976 17.0390627,1.57876147 17.0364026,2.01815846 L17.0364026,5.51280514 C17.9511587,5.51346326 18.8643077,5.58943726 19.7665953,5.73995717 C26.0220128,6.79708779 29.6040257,11.3576017 29.5996574,16.8704069 C29.5927604,18.6341149 29.1340626,20.3666392 28.2673233,21.9026981 C26.6339829,24.7364363 23.5916788,26.4607989 20.3213704,26.406424 C16.7821676,26.5563211 13.7712591,23.8519355 13.5417559,20.3170021 C13.4790661,23.6008447 15.2147722,26.6567597 18.0673233,28.2847966 C19.6030454,29.1528787 21.335546,29.6130742 23.0996146,29.6214989 C29.5210278,29.6214989 34.6188437,24.7945182 34.4572163,16.5209422 Z" id="Path" fill="#FFC979"></path>
        </g>
    </g>
</svg>