<?xml version="1.0" encoding="UTF-8"?><!DOCTYPE svg PUBLIC "-//W3C//DTD SVG 1.1//EN" "http://www.w3.org/Graphics/SVG/1.1/DTD/svg11.dtd"><svg xmlns="http://www.w3.org/2000/svg" viewBox="0 0 82.15 82.2"><defs><style>.cls-1,.cls-2,.cls-3,.cls-4{fill:#fff;}.cls-1{opacity:0.7;}.cls-3{opacity:0.8;}.cls-4{opacity:0.5;}</style></defs><title>footer_project_mobile</title><g id="Capa_2" data-name="Capa 2"><g id="Capa_1-2" data-name="Capa 1"><path class="cls-1" d="M33.8,10.67A34.62,34.62,0,0,0,0,43.71a3.36,3.36,0,0,0,3.31,3.6h7.34a34.84,34.84,0,0,1,.49-5.74c2.21-13.18,11.77-20.71,23.39-20.7a21.71,21.71,0,0,1,10.57,2.8,18.9,18.9,0,0,1,9.47,16.7h0a13.69,13.69,0,0,1-12.8,14.2,16.42,16.42,0,0,0,2.73-.12,18.94,18.94,0,0,0,14-9.34,21.71,21.71,0,0,0,2.8-10.57C61.33,21,51.19,10.32,33.8,10.67Z"/><path class="cls-2" d="M10.66,48.39a34.62,34.62,0,0,0,33,33.8,3.36,3.36,0,0,0,3.6-3.31V71.54A34.84,34.84,0,0,1,41.57,71c-13.18-2.21-20.71-11.77-20.7-23.39a21.71,21.71,0,0,1,2.8-10.57,18.9,18.9,0,0,1,16.7-9.47h0a13.7,13.7,0,0,1,14.21,12.8A18.88,18.88,0,0,0,45.1,23.67a21.71,21.71,0,0,0-10.57-2.8C21,20.86,10.31,31,10.66,48.39Z"/><path class="cls-3" d="M48.35,71.53a34.62,34.62,0,0,0,33.8-33,3.36,3.36,0,0,0-3.31-3.6H71.49A34.84,34.84,0,0,1,71,40.62C68.79,53.8,59.24,61.33,47.62,61.32A21.71,21.71,0,0,1,37,58.52a18.9,18.9,0,0,1-9.47-16.7h0a13.7,13.7,0,0,1,12.8-14.21,18.88,18.88,0,0,0-16.75,9.47,21.71,21.71,0,0,0-2.8,10.57C20.82,61.15,31,71.87,48.35,71.53Z"/><path class="cls-4" d="M71.49,33.8A34.62,34.62,0,0,0,38.46,0a3.36,3.36,0,0,0-3.6,3.31v7.34H35l1,0a35.74,35.74,0,0,1,4.19.39l.37.06a26.66,26.66,0,0,1,11.9,4.94,22.64,22.64,0,0,1,8.84,18.46,21.7,21.7,0,0,1-2.8,10.57,18.45,18.45,0,0,1-8.46,7.74,19,19,0,0,1-5.71,1.63,16.51,16.51,0,0,1-2.57.1h0a13.7,13.7,0,0,1-14.21-12.8,18.88,18.88,0,0,0,9.47,16.75,21.71,21.71,0,0,0,10.57,2.8C61.12,61.33,71.84,51.19,71.49,33.8Z"/></g></g></svg>
